<svg width="182" height="55" viewBox="0 0 182 55" fill="none" xmlns="http://www.w3.org/2000/svg">
<mask id="mask0_45_4501" style="mask-type:alpha" maskUnits="userSpaceOnUse" x="0" y="0" width="182" height="55">
<rect width="182" height="55" rx="6" fill="#D9D9D9"/>
</mask>
<g mask="url(#mask0_45_4501)">
<path d="M72.3308 16.0899L61.8933 31.5463C60.8077 33.182 58.9033 34.1708 56.91 34.1708C53.6642 34.1708 50.9775 31.5038 50.9775 28.2857C50.9775 25.0202 53.6642 22.3582 56.9327 22.3582C57.2567 22.3167 57.6913 22.2713 57.9945 22.2713C60.2477 22.2713 62.5432 23.2166 64.1028 24.8068L67.2202 20.0824C64.7953 17.5933 61.1999 16 57.6034 16C50.8896 16 44.7399 21.5403 44.7399 28.2403C44.7399 34.9007 50.2407 40.3532 56.9565 40.3532C60.2042 40.3532 63.4519 38.9792 65.705 36.7014H72.8949L72.9376 40.3532H79.1773V16.0899H72.3311H72.3308ZM69.4753 31.3754L72.8949 26.6125L72.9376 31.3754H69.4755H69.4753Z" fill="#1482C2"/>
<path d="M91.132 40.3528H84.8943V21.7554H80.0435V16.1301L95.9809 16.0895V21.7553H91.132V40.3528Z" fill="#1482C2"/>
<path d="M116.774 16.0899L110.537 16.0915L110.493 25.1502H103.128L103.082 16.0895H96.8491V40.3527H103.128V30.7745H110.536V40.3527H116.774V16.0895L116.774 16.0899Z" fill="#1482C2"/>
<path d="M166.759 16.0898V27.3809L158.184 16.0898L152.507 16.1294L152.464 24.9787C151.035 19.8246 146.14 16.0898 140.682 16.0898C133.97 16.0898 128.468 21.5403 128.468 28.2402C128.468 30.3916 129.117 32.5765 130.155 34.469H123.975V16.0898H117.619V40.3531H132.15V36.9582C134.446 39.0641 137.564 40.3531 140.682 40.3531C146.14 40.3531 150.949 36.7014 152.464 31.5463L152.507 40.3531H158.79V28.5455L167.319 40.3531H172.992L173 16.0898H166.76H166.759ZM140.683 34.4266C137.261 34.4266 134.446 31.6786 134.446 28.2402C134.446 24.8493 137.261 22.0589 140.683 22.0589C144.15 22.0589 146.965 24.8493 146.965 28.2402C146.965 31.6786 144.15 34.4266 140.683 34.4266Z" fill="#1482C2"/>
<path d="M37.1964 34.4695V31.0736H43.8904L43.8786 25.15H37.1964V22.0593H44.5749L44.5623 16.0903L30.3553 16.1298V24.4625C28.8826 19.9109 24.6362 16.5595 19.7854 16.1298L9 16.0903V40.3525H19.8298C24.6362 39.9248 28.8826 36.5754 30.3553 32.0653V40.3525H44.5751L44.5624 34.4695H37.1967H37.1964ZM23.4676 31.9349C23.0793 33.5686 21.5187 34.7253 19.8296 34.7688H15.845V21.7551H19.8296C21.5187 21.7551 23.0793 22.9631 23.4676 24.6354C23.8587 25.7525 24.075 27.0405 24.075 28.2407C24.075 29.4892 23.8587 30.7753 23.4676 31.9349Z" fill="#1482C2"/>
</g>
</svg>
