<svg width="182" height="55" viewBox="0 0 182 55" fill="none" xmlns="http://www.w3.org/2000/svg">
<mask id="mask0_45_4502" style="mask-type:alpha" maskUnits="userSpaceOnUse" x="0" y="0" width="182" height="55">
<rect width="182" height="55" rx="6" fill="#D9D9D9"/>
</mask>
<g mask="url(#mask0_45_4502)">
<g clip-path="url(#clip0_45_4502)">
<path d="M172.968 13.4369C172.95 13.3755 172.931 13.3141 172.907 13.2527C158.364 13.2589 143.828 13.2527 129.292 13.2589C129.256 13.3019 129.231 13.3448 129.225 13.4001C129.225 24.6765 129.225 35.9468 129.219 47.2233C129.311 47.8248 129.642 48.3712 130.084 48.7825C130.103 48.7887 130.146 48.7946 130.164 48.8009C130.391 49.0401 130.717 49.157 131.023 49.2674C131.251 49.2552 131.472 49.3533 131.699 49.3288H149.746C149.918 49.3226 150.096 49.3533 150.261 49.2859C150.268 49.2614 150.274 49.2184 150.28 49.1938C150.286 49.1631 150.292 49.0956 150.298 49.0588C150.685 46.8981 151.059 44.7312 151.471 42.5705L151.508 42.2942C149.838 42.288 148.162 42.2942 146.493 42.288C146.087 42.2757 145.67 42.288 145.265 42.2388C144.571 42.2081 143.872 42.2326 143.178 42.1652C142.318 42.1652 141.465 42.0853 140.606 42.0853C139.931 42.0178 139.249 42.0424 138.568 42.0117C138.126 41.9566 137.672 41.981 137.224 41.9626C136.493 41.8828 135.75 41.9381 135.02 41.8583C134.246 41.8645 133.473 41.7969 132.7 41.7784C132.706 41.7723 132.712 41.7477 132.712 41.7416C132.97 41.7477 133.221 41.7294 133.479 41.7232C134.05 41.6495 134.627 41.6987 135.198 41.6188C135.793 41.6188 136.383 41.5391 136.978 41.5391C137.506 41.4653 138.04 41.5084 138.568 41.4346C139.188 41.4346 139.796 41.3549 140.416 41.3487C140.925 41.2812 141.441 41.318 141.95 41.2505C142.546 41.2566 143.135 41.1645 143.73 41.1707C144.314 41.1031 144.909 41.1215 145.492 41.0601C145.437 40.8331 145.394 40.6059 145.345 40.3787C145.302 40.2376 145.13 40.2683 145.02 40.2498C143.687 40.0594 142.362 39.8693 141.036 39.6851C141.122 39.6175 141.238 39.6481 141.336 39.6359C142.368 39.5561 143.393 39.464 144.424 39.3904C144.657 39.3782 144.885 39.3351 145.118 39.329C145.013 39.0099 144.952 38.6599 144.811 38.3653C142.607 38.0277 140.403 37.7269 138.206 37.3647C138.777 37.2726 139.354 37.2297 139.925 37.1683L139.974 37.1498C141.797 36.9594 143.626 36.7446 145.449 36.5667C147.763 36.5545 150.072 36.5604 152.386 36.5667C152.459 36.5545 152.588 36.5911 152.601 36.4868C152.791 35.4924 152.975 34.4981 153.165 33.5035C153.429 32.1224 153.847 30.7596 154.491 29.5012C155.504 27.4755 157.106 25.7567 159.058 24.615C160.881 23.5469 162.993 23.0313 165.092 22.9331C165.774 22.8717 166.461 22.8901 167.137 22.976C167.578 23.0804 168.033 23.2032 168.383 23.504C168.671 23.7372 168.843 24.081 168.972 24.4247C169.254 25.2412 169.414 26.0883 169.549 26.9415C169.555 27.2853 169.616 27.672 169.432 27.9851C169.26 28.292 168.917 28.4393 168.591 28.5314C167.407 28.8383 166.167 28.5498 164.982 28.8383C164.006 29.047 163.097 29.5872 162.477 30.3668C161.747 31.2753 161.36 32.4046 161.145 33.5343C160.98 34.541 160.771 35.5477 160.605 36.5605C161.771 36.5668 162.944 36.5544 164.116 36.5668C164.583 36.5668 165.062 36.8245 165.252 37.2665C165.498 37.8313 165.442 38.4697 165.362 39.0651C165.264 39.7342 165.105 40.3971 164.804 41.011C164.552 41.5327 164.135 42.0116 163.564 42.1958C163.269 42.3124 162.95 42.2878 162.637 42.2878C161.606 42.2878 160.574 42.3001 159.543 42.2878C159.377 43.0429 159.267 43.8163 159.12 44.5836C158.85 46.0752 158.586 47.573 158.315 49.0709C158.309 49.1201 158.303 49.2244 158.303 49.2796C158.788 49.3042 159.273 49.2796 159.758 49.2918C163.355 49.2918 166.959 49.2856 170.562 49.2918C170.949 49.3042 171.341 49.2121 171.679 49.0217C171.882 48.9481 172.004 48.7701 172.182 48.6719C172.354 48.5737 172.403 48.3712 172.551 48.2422C172.71 47.9598 172.876 47.6653 172.888 47.3336C172.907 47.3336 172.956 47.3275 172.98 47.3214C172.962 36.0267 172.98 24.7318 172.968 13.4369Z" fill="url(#paint0_linear_45_4502)" stroke="#FCD109" stroke-width="0.094"/>
<path d="M134.946 6.00928C135.468 5.84354 136.014 5.95404 136.548 5.9172C146.572 5.92334 156.597 5.9172 166.621 5.9172C167.216 5.89265 167.738 6.23027 168.29 6.40215C168.732 6.58017 169.193 6.72135 169.635 6.91165C169.727 6.94848 169.794 7.02828 169.862 7.0958C169.856 7.90609 169.862 8.72251 169.862 9.53893C169.868 9.75378 169.831 9.97477 169.905 10.1835C170.034 10.2019 170.101 10.3001 170.187 10.3799C170.592 10.5641 170.936 10.8649 171.304 11.1104C171.857 11.5033 172.446 11.847 172.986 12.2522C173.011 12.4118 172.992 12.5775 172.943 12.7248C172.888 12.8967 172.925 13.0809 172.907 13.2527C158.364 13.2589 143.828 13.2527 129.292 13.2589C129.262 13.0563 129.317 12.8537 129.231 12.6634C129.219 12.5038 129.163 12.2951 129.317 12.1846C129.931 11.7549 130.581 11.3682 131.183 10.914C131.557 10.6746 131.919 10.429 132.282 10.1835C132.355 10.0607 132.331 9.90724 132.331 9.7722C132.331 8.88211 132.331 7.99203 132.337 7.10194C132.546 6.83184 132.908 6.80115 133.196 6.6661C133.78 6.44512 134.369 6.23027 134.946 6.00928ZM134.983 6.11364C134.197 6.41443 133.405 6.70294 132.62 7.00372C132.515 7.02214 132.46 7.11422 132.405 7.19402C132.411 7.24313 132.417 7.32907 132.417 7.37817C132.411 8.1148 132.417 8.85142 132.411 9.58804C132.417 9.7722 132.392 9.95635 132.46 10.1221C132.38 10.2019 132.294 10.2817 132.196 10.3431C131.306 10.9201 130.446 11.5462 129.556 12.1171C129.403 12.2092 129.231 12.332 129.28 12.5345C129.249 12.645 129.305 12.7371 129.421 12.7064C131.349 12.6941 133.27 12.7187 135.198 12.688C138.064 12.688 140.925 12.6941 143.792 12.688L143.835 12.6696C143.964 12.7003 144.092 12.688 144.227 12.688C149.421 12.688 154.614 12.6941 159.813 12.688C161.446 12.6941 163.085 12.688 164.724 12.688C167.425 12.688 170.132 12.7125 172.833 12.7003C172.913 12.6819 172.937 12.6266 172.907 12.5284C172.9 12.4302 172.937 12.2951 172.833 12.2337C172.403 12.0312 172.035 11.7181 171.624 11.4726C171.476 11.3498 171.286 11.2823 171.175 11.1165C170.752 10.8771 170.359 10.5825 169.942 10.3185C169.862 10.2694 169.8 10.1896 169.733 10.1221C169.77 9.99318 169.782 9.852 169.782 9.71695C169.776 8.93736 169.782 8.15777 169.776 7.37817C169.794 7.2554 169.788 7.11422 169.678 7.03442C168.941 6.77046 168.211 6.48809 167.48 6.21799C167.253 6.1075 167.001 6.04611 166.756 6.00928H135.382C135.247 6.01542 135.118 6.08295 134.983 6.11364Z" fill="#F8F3B5" stroke="#F8F3B5" stroke-width="0.094"/>
<path d="M132.417 7.37817C132.957 7.6053 133.534 7.73421 134.08 7.9552C134.375 8.07183 134.467 8.39103 134.596 8.64885C134.467 8.77776 134.314 8.88211 134.16 8.98033C133.595 9.36092 133.018 9.72923 132.46 10.1221C132.392 9.95635 132.417 9.7722 132.411 9.58804C132.417 8.85142 132.411 8.1148 132.417 7.37817ZM168.112 7.9552C168.659 7.74035 169.23 7.59302 169.776 7.37817C169.782 8.15777 169.776 8.93736 169.782 9.71695C169.782 9.852 169.77 9.99318 169.733 10.1221C169.254 9.79061 168.769 9.47755 168.29 9.15221C168.057 8.98033 167.799 8.85142 167.591 8.64271C167.72 8.38489 167.818 8.07183 168.112 7.9552Z" fill="#F7B402" stroke="#F7B402" stroke-width="0.094"/>
<path d="M141.784 8.20688C142.46 8.04728 143.215 8.64886 143.159 9.35479C143.165 10.0484 142.435 10.6132 141.766 10.4536C141.496 10.3615 141.238 10.2203 141.072 9.98092C140.857 9.65557 140.808 9.21974 140.98 8.8637C141.103 8.51995 141.434 8.28668 141.784 8.20688ZM159.298 8.59361C159.58 8.28055 160.028 8.10253 160.445 8.21302C160.758 8.3051 161.065 8.50767 161.2 8.8146C161.471 9.34251 161.262 10.0546 160.734 10.3308C160.267 10.5886 159.678 10.4659 159.322 10.0914C158.96 9.68013 158.935 9.00489 159.298 8.59361Z" fill="#BDA727" stroke="#BDA727" stroke-width="0.094"/>
<path d="M134.16 8.98032C134.314 8.8821 134.467 8.77775 134.596 8.64884L134.639 8.69181C134.682 9.01101 134.651 9.33635 134.664 9.65556C134.645 10.6132 134.682 11.5769 134.639 12.5345C132.853 12.5345 131.067 12.5222 129.28 12.5345C129.231 12.332 129.403 12.2092 129.556 12.1171C130.446 11.5462 131.306 10.9201 132.196 10.3431C132.294 10.2817 132.38 10.2019 132.46 10.1221C133.019 9.72922 133.596 9.36091 134.16 8.98032ZM167.529 8.85755C167.529 8.77775 167.548 8.71022 167.591 8.6427C167.799 8.85141 168.057 8.98032 168.29 9.1522C168.769 9.47754 169.254 9.7906 169.733 10.1221C169.8 10.1896 169.862 10.2694 169.942 10.3185C170.359 10.5825 170.752 10.8771 171.175 11.1165C171.286 11.2823 171.476 11.3498 171.624 11.4726C172.035 11.7181 172.403 12.0312 172.833 12.2337C172.937 12.2951 172.9 12.4302 172.907 12.5284C171.12 12.5345 169.34 12.5222 167.554 12.5345C167.523 12.289 167.541 12.0434 167.535 11.804C167.535 10.8219 167.523 9.83971 167.529 8.85755Z" fill="#F7E62D" stroke="#F7E62D" stroke-width="0.094"/>
<path d="M172.907 12.5284C171.12 12.5345 169.34 12.5222 167.554 12.5345C167.523 12.289 167.542 12.0434 167.535 11.804C167.535 10.8219 167.523 9.83972 167.529 8.85755C167.529 8.77775 167.548 8.71023 167.591 8.6427C167.72 8.38489 167.818 8.07182 168.112 7.95519C168.659 7.74034 169.23 7.59302 169.776 7.37817C169.794 7.2554 169.788 7.11421 169.678 7.03441C168.941 6.77045 168.211 6.48808 167.48 6.21799C167.253 6.10749 167.001 6.04611 166.756 6.00928H135.382C135.247 6.01542 135.118 6.08294 134.983 6.11363C134.197 6.41442 133.405 6.70293 132.619 7.00372C132.515 7.02213 132.46 7.11421 132.405 7.19401C132.411 7.24312 132.417 7.32906 132.417 7.37817C132.957 7.60529 133.534 7.7342 134.08 7.95519C134.375 8.07182 134.467 8.39102 134.596 8.64884L134.639 8.69181C134.682 9.01101 134.651 9.33636 134.663 9.65556C134.645 10.6132 134.682 11.5769 134.639 12.5345C132.853 12.5345 131.066 12.5222 129.28 12.5345C129.249 12.645 129.305 12.7371 129.421 12.7064C131.349 12.6941 133.27 12.7187 135.198 12.688C138.064 12.688 140.925 12.6941 143.792 12.688L143.835 12.6696C143.963 12.7003 144.092 12.688 144.227 12.688C149.42 12.688 154.614 12.6941 159.813 12.688C161.446 12.6941 163.085 12.688 164.724 12.688C167.425 12.688 170.132 12.7125 172.833 12.7003C172.913 12.6819 172.937 12.6266 172.907 12.5284ZM140.98 8.86369C141.103 8.51993 141.434 8.28667 141.784 8.20687C142.46 8.04727 143.215 8.64884 143.159 9.35477C143.166 10.0484 142.435 10.6132 141.766 10.4536C141.496 10.3615 141.238 10.2203 141.072 9.9809C140.857 9.65556 140.808 9.21972 140.98 8.86369ZM159.298 8.5936C159.58 8.28053 160.028 8.10251 160.445 8.21301C160.759 8.30508 161.065 8.50766 161.201 8.81458C161.471 9.3425 161.262 10.0546 160.734 10.3308C160.267 10.5886 159.678 10.4658 159.322 10.0914C158.96 9.68011 158.935 9.00488 159.298 8.5936Z" fill="url(#paint1_radial_45_4502)" stroke="#FCD109" stroke-width="0.094"/>
<path d="M160.862 15.226C160.948 15.2444 160.415 14.7137 160.519 14.6891C160.617 14.7014 160.99 14.4124 161.44 14.6482C161.89 14.884 161.778 15.436 161.727 15.6406C161.667 15.8842 161.511 16.0396 161.389 16.1624C161.321 16.2176 161.17 16.3036 161.078 16.2974C161.133 15.9966 160.955 15.9475 160.943 15.6406L160.862 15.226Z" fill="url(#paint2_linear_45_4502)" stroke="#FCD109" stroke-width="0.094"/>
<path d="M141.239 15.5588C141.227 15.8657 141.049 15.9148 141.104 16.2156C141.012 16.2218 140.86 16.1358 140.793 16.0806C140.67 15.9578 140.515 15.8024 140.454 15.5588C140.403 15.3542 140.292 14.8023 140.742 14.5664C141.192 14.3305 141.564 14.6196 141.663 14.6073C141.767 14.6319 141.234 15.1626 141.32 15.1442L141.239 15.5588Z" fill="url(#paint3_linear_45_4502)" stroke="#FCD109" stroke-width="0.094"/>
<path d="M160.058 19.1584C160.151 19.0782 160.212 19.0782 160.335 19.0782C159.598 20.6742 158.739 22.2702 157.447 23.5128C157.309 23.6362 157.163 23.7506 157.01 23.8552C156.862 23.9635 156.717 24.065 156.573 24.1684C156.432 24.2665 156.291 24.365 156.155 24.4679C155.805 24.6582 155.498 24.9222 155.111 25.0388C154.405 25.3764 153.644 25.6035 152.877 25.7631C152.576 25.8123 152.269 25.8859 151.962 25.892C151.581 26.0026 151.176 25.9227 150.79 25.9473C150.575 25.9841 150.384 25.8613 150.176 25.8859C149.995 25.8603 149.814 25.8296 149.634 25.7937C149.452 25.7565 149.271 25.7135 149.092 25.6649C146.278 24.787 143.515 22.6385 142.711 19.7329C142.674 19.5372 142.656 19.3386 142.656 19.1396C142.742 19.3114 142.831 19.4821 142.923 19.6512C144.068 22.1474 146.339 24.1118 149.022 24.7041C149.24 24.8034 149.476 24.7686 149.685 24.8545C149.875 24.8545 150.059 24.8484 150.243 24.9098C150.876 24.922 151.508 24.9159 152.14 24.9159C152.226 24.9221 152.306 24.8791 152.392 24.8607C153.446 24.8249 154.478 24.5375 155.439 24.1017C155.632 24.0145 155.821 23.9214 156.007 23.8232C156.17 23.7374 156.329 23.6445 156.484 23.5446C156.636 23.4466 156.784 23.3423 156.927 23.2318C158.064 22.3316 159.046 21.1653 159.713 19.8241C159.84 19.5827 159.956 19.3592 160.058 19.1584Z" fill="#BDA727" stroke="#BDA727" stroke-width="0.094"/>
<path d="M159.058 24.6151C160.881 23.547 162.993 23.0314 165.092 22.9332C165.774 22.8718 166.461 22.8902 167.136 22.9761C167.578 23.0805 168.033 23.2033 168.383 23.5041C168.204 23.5163 168.033 23.4365 167.855 23.412C167.351 23.3138 166.829 23.3506 166.32 23.3383C164.84 23.3383 163.349 23.455 161.919 23.8601C161.17 24.0872 160.421 24.3512 159.739 24.744C158.561 25.3947 157.499 26.2541 156.64 27.2854C155.105 29.0472 154.203 31.2816 153.767 33.559C153.558 34.7805 153.318 35.9958 153.128 37.2235C152.821 37.2542 152.508 37.2359 152.201 37.2359C150.851 37.2297 149.5 37.2235 148.15 37.2114C147.861 37.2235 147.579 37.1562 147.291 37.1745C144.835 37.1867 142.38 37.1684 139.924 37.1684L139.973 37.1499C141.797 36.9595 143.626 36.7446 145.449 36.5667C147.763 36.5545 150.071 36.5605 152.386 36.5667C152.459 36.5545 152.588 36.5911 152.6 36.4869C152.791 35.4925 152.975 34.4981 153.165 33.5035C153.429 32.1225 153.846 30.7597 154.491 29.5013C155.504 27.4756 157.106 25.7568 159.058 24.6151Z" fill="#0D69B3" stroke="#0D69B3" stroke-width="0.094"/>
<path d="M161.919 23.8601C163.349 23.4549 164.841 23.3383 166.32 23.3383C166.83 23.3506 167.351 23.3138 167.855 23.412C168.033 23.4365 168.204 23.5163 168.383 23.5041C168.671 23.7373 168.843 24.0811 168.972 24.4248C169.254 25.2413 169.414 26.0884 169.549 26.9416C169.555 27.2854 169.616 27.6721 169.432 27.9852C169.26 28.2921 168.917 28.4394 168.591 28.5315C167.407 28.8384 166.167 28.5499 164.982 28.8384C164.006 29.0471 163.097 29.5873 162.477 30.3669C161.747 31.2754 161.36 32.4047 161.145 33.5344C160.98 34.5411 160.771 35.5478 160.605 36.5606C160.531 36.7878 160.488 37.0334 160.445 37.2728C161.606 37.2913 162.766 37.2728 163.926 37.285C164.368 37.2728 164.81 37.2973 165.252 37.2666C165.497 37.8314 165.442 38.4698 165.362 39.0652C165.264 39.7343 165.105 40.3972 164.804 41.0111C164.552 41.5328 164.135 42.0117 163.564 42.1959C163.269 42.3125 162.95 42.2879 162.637 42.2879C161.606 42.2879 160.574 42.3002 159.543 42.2879C159.377 43.043 159.267 43.8164 159.12 44.5837C158.85 46.0753 158.586 47.5731 158.315 49.071C158.309 49.1202 158.303 49.2245 158.303 49.2797V49.2859C155.621 49.2859 152.944 49.2921 150.262 49.2859C150.268 49.2614 150.274 49.2183 150.28 49.1938C150.286 49.1631 150.292 49.0956 150.299 49.0588C150.305 49.108 150.311 49.2 150.317 49.2429C150.483 49.2614 150.784 49.3472 150.827 49.108C151.244 46.8489 151.631 44.5777 152.06 42.3186C151.895 42.2818 151.723 42.2818 151.551 42.3125C151.526 42.3984 151.502 42.4843 151.471 42.5702L151.508 42.294C149.838 42.2878 148.162 42.294 146.493 42.2878C146.088 42.2757 145.67 42.2878 145.265 42.2387C144.571 42.208 143.872 42.2326 143.178 42.165C142.319 42.165 141.465 42.0852 140.606 42.0852C139.931 42.0177 139.249 42.0422 138.568 42.0115C138.126 41.9564 137.672 41.9808 137.224 41.9625C136.493 41.8826 135.751 41.938 135.02 41.8581C134.247 41.8643 133.473 41.7967 132.7 41.7783C132.706 41.7722 132.712 41.7476 132.712 41.7415C132.97 41.7476 133.221 41.7291 133.479 41.723C134.05 41.6494 134.627 41.6985 135.198 41.6187C135.794 41.6187 136.383 41.5389 136.978 41.5389C137.506 41.4653 138.04 41.5082 138.568 41.4346C139.188 41.4346 139.796 41.3547 140.416 41.3486C140.925 41.2811 141.441 41.3179 141.95 41.2504C142.546 41.2565 143.135 41.1645 143.731 41.1705C144.314 41.1029 144.909 41.1214 145.492 41.06C145.437 40.8329 145.394 40.6059 145.345 40.3786C145.302 40.2374 145.13 40.2681 145.02 40.2497C143.688 40.0593 142.362 39.8691 141.036 39.6849C141.122 39.6173 141.238 39.6479 141.337 39.6359C142.368 39.5559 143.393 39.4638 144.424 39.3903C144.658 39.378 144.885 39.3351 145.118 39.3289C145.014 39.0097 144.952 38.6598 144.811 38.3651C142.607 38.0275 140.404 37.7267 138.206 37.3646C138.777 37.2725 139.354 37.2295 139.925 37.1681C142.38 37.1681 144.836 37.1866 147.291 37.1742C147.579 37.1559 147.862 37.2234 148.15 37.2112C149.501 37.2234 150.851 37.2297 152.202 37.2356C152.509 37.2356 152.822 37.2541 153.129 37.2234C153.319 35.9957 153.558 34.7802 153.767 33.5588C154.203 31.2813 155.105 29.047 156.64 27.2853C157.499 26.2539 158.561 25.3945 159.74 24.7439C160.421 24.3512 161.17 24.0872 161.919 23.8601Z" fill="#107BD4" stroke="#107BD4" stroke-width="0.094"/>
<path d="M160.605 36.5607C161.771 36.5669 162.944 36.5545 164.116 36.5669C164.583 36.5669 165.062 36.8247 165.252 37.2666C164.81 37.2973 164.368 37.2729 163.926 37.2851C162.766 37.2729 161.605 37.2913 160.445 37.2729C160.488 37.0334 160.531 36.7879 160.605 36.5607ZM151.551 42.3125C151.723 42.2818 151.895 42.2818 152.06 42.3187C151.631 44.5777 151.244 46.849 150.826 49.108C150.783 49.3473 150.483 49.2615 150.317 49.243C150.311 49.2001 150.305 49.108 150.298 49.0588C150.685 46.8981 151.06 44.7312 151.471 42.5705C151.502 42.4843 151.526 42.3985 151.551 42.3125Z" fill="#0D69B3" stroke="#0D69B3" stroke-width="0.094"/>
<path d="M161.142 15.3979C161.093 15.3058 161.087 15.1953 161.087 15.091L161.038 15.0971C160.964 14.827 160.737 14.5692 160.442 14.5569C160.221 14.5385 159.945 14.5447 159.816 14.7534C159.571 15.0849 159.687 15.5084 159.675 15.8829C159.675 15.9074 159.681 15.9504 159.681 15.9749C159.681 16.2266 159.65 16.4722 159.607 16.7177C159.571 16.7914 159.552 16.8712 159.552 16.9571C159.448 17.5341 159.239 18.105 158.957 18.6268C158.902 18.7004 158.858 18.7802 158.84 18.8662C158.656 19.1854 158.435 19.48 158.208 19.7747C158.171 19.8054 158.14 19.8422 158.11 19.879C157.95 20.0755 157.778 20.2412 157.6 20.4131C157.557 20.4376 157.526 20.4683 157.49 20.4929C157.281 20.6955 157.048 20.8858 156.796 21.0392C156.765 21.0576 156.735 21.0822 156.698 21.1067C155.126 22.1442 153.217 22.5738 151.357 22.5923C149.78 22.6414 148.19 22.3038 146.765 21.6224C146.741 21.6101 146.68 21.5855 146.655 21.5733C146.416 21.4444 146.17 21.3339 145.949 21.1743C145.9 21.1497 145.851 21.119 145.796 21.0945C145.568 20.9594 145.354 20.8121 145.151 20.6402C145.084 20.5788 145.01 20.5297 144.936 20.4745C144.715 20.2965 144.488 20.1062 144.298 19.8913C144.249 19.8361 144.2 19.787 144.151 19.7379C143.482 19.0442 142.96 18.1971 142.684 17.2763C142.42 16.5458 142.456 15.7478 142.426 14.9805C142.205 14.6429 141.738 14.4526 141.37 14.6613C141.216 14.7718 141.198 14.9744 141.081 15.1155C140.891 17.1413 141.757 19.1608 143.138 20.6218C143.138 20.6709 143.162 20.7016 143.205 20.72C143.451 20.9471 143.69 21.1804 143.936 21.4014C143.979 21.4444 144.028 21.4873 144.083 21.5242C144.329 21.7267 144.593 21.9109 144.85 22.1012C144.9 22.138 144.949 22.1687 145.004 22.1994C145.342 22.3958 145.661 22.6291 146.023 22.7641C146.047 22.7826 146.09 22.8133 146.115 22.8255C147.281 23.3841 148.54 23.7647 149.829 23.8875C149.97 23.8875 150.111 23.8998 150.252 23.9305C150.866 23.9673 151.48 23.9489 152.094 23.9366C153.991 23.7709 155.949 23.3105 157.533 22.1933L157.551 22.2178C157.6 22.1748 157.643 22.138 157.692 22.1012C157.944 21.917 158.19 21.7206 158.435 21.518C158.49 21.4751 158.552 21.4259 158.607 21.3707C158.877 21.0761 159.19 20.806 159.417 20.4683L159.454 20.4868C159.473 20.4561 159.503 20.3947 159.522 20.364C159.73 20.0816 159.921 19.787 160.105 19.4923C160.117 19.4739 160.148 19.4432 160.16 19.4248L160.136 19.4002C160.154 19.3757 160.197 19.3266 160.215 19.302C160.553 18.6145 160.854 17.8963 160.958 17.1351C161.001 17.1167 161.026 17.0799 161.026 17.0369C161.032 16.7914 161.118 16.5581 161.093 16.3126C161.148 16.0118 161.154 15.7048 161.142 15.3979Z" fill="white" stroke="white" stroke-width="0.094"/>
<mask id="mask1_45_4502" style="mask-type:luminance" maskUnits="userSpaceOnUse" x="141" y="14" width="21" height="10">
<path d="M161.142 15.3979C161.093 15.3058 161.087 15.1953 161.087 15.091L161.038 15.0971C160.964 14.827 160.737 14.5692 160.442 14.5569C160.221 14.5385 159.945 14.5447 159.816 14.7534C159.571 15.0849 159.687 15.5084 159.675 15.8829C159.675 15.9074 159.681 15.9504 159.681 15.9749C159.681 16.2266 159.65 16.4722 159.607 16.7177C159.571 16.7914 159.552 16.8712 159.552 16.9571C159.448 17.5341 159.239 18.105 158.957 18.6268C158.902 18.7004 158.858 18.7802 158.84 18.8662C158.656 19.1854 158.435 19.48 158.208 19.7747C158.171 19.8054 158.14 19.8422 158.11 19.879C157.95 20.0755 157.778 20.2412 157.6 20.4131C157.557 20.4376 157.526 20.4683 157.49 20.4929C157.281 20.6955 157.048 20.8858 156.796 21.0392C156.765 21.0576 156.735 21.0822 156.698 21.1067C155.126 22.1442 153.217 22.5738 151.357 22.5923C149.78 22.6414 148.19 22.3038 146.765 21.6224C146.741 21.6101 146.68 21.5855 146.655 21.5733C146.416 21.4444 146.17 21.3339 145.949 21.1743C145.9 21.1497 145.851 21.119 145.796 21.0945C145.568 20.9594 145.354 20.8121 145.151 20.6402C145.084 20.5788 145.01 20.5297 144.936 20.4745C144.715 20.2965 144.488 20.1062 144.298 19.8913C144.249 19.8361 144.2 19.787 144.151 19.7379C143.482 19.0442 142.96 18.1971 142.684 17.2763C142.42 16.5458 142.456 15.7478 142.426 14.9805C142.205 14.6429 141.738 14.4526 141.37 14.6613C141.216 14.7718 141.198 14.9744 141.081 15.1155C140.891 17.1413 141.757 19.1608 143.138 20.6218C143.138 20.6709 143.162 20.7016 143.205 20.72C143.451 20.9471 143.69 21.1804 143.936 21.4014C143.979 21.4444 144.028 21.4873 144.083 21.5242C144.329 21.7267 144.593 21.9109 144.85 22.1012C144.9 22.138 144.949 22.1687 145.004 22.1994C145.342 22.3958 145.661 22.6291 146.023 22.7641C146.047 22.7826 146.09 22.8133 146.115 22.8255C147.281 23.3841 148.54 23.7647 149.829 23.8875C149.97 23.8875 150.111 23.8998 150.252 23.9305C150.866 23.9673 151.48 23.9489 152.094 23.9366C153.991 23.7709 155.949 23.3105 157.533 22.1933L157.551 22.2178C157.6 22.1748 157.643 22.138 157.692 22.1012C157.944 21.917 158.19 21.7206 158.435 21.518C158.49 21.4751 158.552 21.4259 158.607 21.3707C158.877 21.0761 159.19 20.806 159.417 20.4683L159.454 20.4868C159.473 20.4561 159.503 20.3947 159.522 20.364C159.73 20.0816 159.921 19.787 160.105 19.4923C160.117 19.4739 160.148 19.4432 160.16 19.4248L160.136 19.4002C160.154 19.3757 160.197 19.3266 160.215 19.302C160.553 18.6145 160.854 17.8963 160.958 17.1351C161.001 17.1167 161.026 17.0799 161.026 17.0369C161.032 16.7914 161.118 16.5581 161.093 16.3126C161.148 16.0118 161.154 15.7048 161.142 15.3979V15.3979Z" fill="white"/>
</mask>
<g mask="url(#mask1_45_4502)">
<path d="M140.61 15.1906C141.107 15.3467 142.251 14.9539 142.574 15.3133M140.896 16.7047C141.373 16.5388 142.396 16.1459 142.82 16.3773M141.387 18.2189C141.618 18.2935 142.072 17.8886 142.298 17.7699C142.634 17.5933 142.978 17.4579 143.352 17.4004M142.124 19.8149C142.362 19.477 142.646 19.1964 142.99 18.9564C143.33 18.7186 144.262 18.0832 144.661 18.3007M142.82 20.9608C143.09 20.7462 143.199 20.3667 143.483 20.1413C143.826 19.8687 144.351 19.8197 144.702 19.6512M143.976 21.8098C144.057 21.2164 144.659 20.5002 145.234 20.5514M144.866 22.6386C145.17 22.6082 145.427 21.928 145.632 21.6975C145.94 21.3522 146.259 21.246 146.666 21.1244M146.626 23.3752C146.606 22.9458 147.05 21.7145 147.567 21.7792M147.935 23.7845C147.914 23.277 148.176 21.7504 148.795 21.6974M149.286 24.6029C149.168 23.8932 149.176 22.8665 149.736 22.3521M150.964 24.7666C150.901 24.175 150.313 22.979 150.964 22.5158M152.764 24.3574C152.483 24.032 152.32 22.7484 152.437 22.3931M154.483 24.0709C154.266 23.6779 153.998 23.3087 153.916 22.8525C153.867 22.5798 153.953 22.1914 153.91 21.9838M155.915 23.4571C155.446 23.1499 155.315 22.0212 155.465 21.5337M157.307 22.8432C156.973 22.1268 156.617 21.5713 156.611 20.7561M158.657 21.5337C158.138 21.1846 157.476 20.55 157.552 19.8558M160.089 20.4287C159.301 20.254 158.355 19.5485 157.88 18.9145M160.744 19.0783C160.175 18.9563 158.296 18.223 158.412 17.4822M161.358 17.646C160.566 17.3554 159.413 17.0942 158.78 16.541M161.767 16.3364C161.268 16.3791 160.553 16.1374 160.046 16.0499C159.482 15.9527 158.96 15.7628 158.412 15.6406M161.276 15.0678C160.313 15.1254 159.41 14.796 158.534 14.4949" stroke="#D1D1D1" stroke-width="2"/>
</g>
<path d="M38.0787 18.0193C38.9683 17.8851 39.992 17.8012 40.7473 18.355C41.2172 18.7073 41.385 19.3451 41.3514 19.9158C41.385 20.8556 40.9487 21.8627 40.1097 22.3494C39.3711 22.7523 38.4817 22.7856 37.6592 22.7018C37.1053 22.6348 36.5515 22.3327 36.2662 21.8292C35.6283 20.369 36.4171 18.3046 38.0787 18.0193ZM11.4602 19.0767C11.5105 18.5731 11.9637 18.12 12.484 18.1369C16.3611 18.1369 20.2212 18.1536 24.0814 18.1369C24.501 18.1033 24.9542 18.2878 25.1555 18.6571C25.4407 19.1606 25.1891 19.7144 25.1555 20.2348C25.0381 20.9395 25.0716 21.8795 24.2493 22.148C21.4296 22.2319 18.61 22.148 15.7903 22.1816C15.5218 23.9605 15.2701 25.7227 15.0014 27.485C15.0014 27.5521 15.0183 27.7033 15.0183 27.7702C17.0826 27.7536 19.147 27.7702 21.2113 27.7536C21.782 27.72 22.3861 28.2069 22.3357 28.8109C22.2855 29.4319 22.1512 30.0361 22.0673 30.6571C22 31.0766 21.6644 31.4627 21.228 31.5466C18.9287 31.5969 16.5957 31.4963 14.2966 31.5969C13.9273 34.1312 13.4909 36.6654 13.1048 39.1998C13.0546 39.7034 12.6517 40.1397 12.1482 40.1563C11.1916 40.1732 10.2349 40.1732 9.27831 40.1563C8.65734 40.1732 8.15379 39.4849 8.32156 38.8975C9.34565 32.2852 10.4029 25.6894 11.4602 19.0767ZM28.5121 18.1703C29.3849 18.1032 30.2743 18.1536 31.1472 18.1369C31.6843 18.1033 32.2213 18.5228 32.2716 19.0767C32.2716 19.513 32.1541 19.9494 32.1038 20.3857C31.3988 24.8837 30.6772 29.3817 29.9722 33.8797C29.8715 34.6013 29.6869 35.3733 29.9052 36.1118C30.1569 36.8502 31.2812 36.5313 31.5498 37.3033C31.7177 37.9243 31.533 38.5788 31.4826 39.2167C31.4324 40.0558 30.4757 40.2404 29.8212 40.4252C28.3947 40.6937 26.6659 40.4923 25.6421 39.3173C24.9036 38.4615 24.8532 37.253 25.0044 36.179C25.8939 30.4727 26.7834 24.7664 27.6898 19.0431C27.7402 18.6235 28.0758 18.2375 28.5121 18.1703ZM61.8271 19.0767C61.8773 18.5731 62.3306 18.1369 62.8341 18.1369H65.3852C66.0229 18.12 66.5434 18.8082 66.3922 19.4123C65.8048 23.1382 65.2007 26.8642 64.6133 30.5899C65.5028 30.4557 66.5098 30.2879 67.1308 29.5663C68.1712 28.3913 69.0274 27.0321 69.665 25.6055C69.8831 25.0516 70.0007 24.246 70.7224 24.1453C71.6791 24.1117 72.6524 24.1284 73.6091 24.1453C74.2637 24.1284 74.7504 24.8669 74.5322 25.4711C74.2805 26.3608 73.8609 27.183 73.4246 27.9719C72.4511 29.5496 71.3771 31.1103 69.9671 32.3523C70.5881 34.2152 71.377 36.0279 72.0651 37.8573C72.2664 38.4615 72.7533 39.1663 72.3001 39.7539C71.7796 40.4587 70.8063 40.1061 70.0846 40.19C69.3293 40.1061 68.2385 40.4922 67.8188 39.6363C67.03 37.8068 66.3755 35.9272 65.5698 34.0978C65.0999 34.1144 64.6132 34.1314 64.1432 34.081C64.1098 34.1482 64.0426 34.2823 64.0089 34.3496C63.7571 36.0279 63.4887 37.7062 63.2201 39.3845C63.1194 39.7873 62.8005 40.1398 62.3642 40.1734C61.4747 40.207 60.5684 40.19 59.6621 40.19C59.276 40.19 58.9236 39.9383 58.7557 39.6027C58.5879 39.2668 58.6885 38.881 58.7391 38.5118C59.7795 32.0334 60.8033 25.555 61.8271 19.0767ZM108.468 20.9061C108.586 20.436 109.039 20.1172 109.509 20.1339C110.18 20.1508 110.868 20.1172 111.556 20.1508C112.11 20.1675 112.546 20.7214 112.479 21.2584C112.379 22.2151 112.144 23.1718 112.077 24.1283C112.731 24.1283 113.402 24.1116 114.057 24.1283C114.644 24.1283 115.131 24.7326 115.03 25.3031C114.946 25.8236 114.829 26.3271 114.745 26.8472C114.661 27.2837 114.292 27.6361 113.872 27.7032C113.067 27.7536 112.278 27.6696 111.489 27.7536C111.153 30.0024 110.784 32.2513 110.432 34.5005C110.381 35.0208 110.348 35.6081 110.65 36.0613C111.103 36.6152 111.892 36.4137 112.53 36.4809C113.033 36.6319 113.352 37.1859 113.268 37.6895C113.184 38.2599 113.167 38.8306 113.033 39.3844C112.832 40.0053 112.11 40.1229 111.556 40.2739C110.029 40.6768 108.267 40.6768 106.907 39.7872C105.649 38.9312 105.447 37.2697 105.581 35.8598C105.934 33.1409 106.488 30.4388 106.79 27.7032C106.32 27.7199 105.749 27.7871 105.397 27.3674C104.994 26.9479 105.195 26.3269 105.263 25.8065C105.363 25.2527 105.346 24.531 105.951 24.2289C106.437 24.0442 106.991 24.1786 107.512 24.1114C107.83 23.0374 108.132 21.9634 108.468 20.9061ZM98.9855 26.3438C100.043 25.2864 101.318 24.4137 102.779 23.9774C103.416 23.6921 104.239 24.2292 104.222 24.9341C104.104 25.8572 103.886 26.7633 103.735 27.6696C103.668 28.1228 103.282 28.5089 102.829 28.5592C101.184 28.8444 99.7575 29.8345 98.6162 31.0095C98.331 31.3621 97.9113 31.6977 97.861 32.1843C97.5086 34.534 97.1394 36.8837 96.7701 39.2333C96.7198 39.7367 96.2833 40.2237 95.7631 40.1901H93.2119C92.6246 40.2237 92.1044 39.6363 92.1714 39.0488C92.9099 34.3997 93.6485 29.7677 94.3701 25.1185C94.4037 24.6487 94.7394 24.1955 95.226 24.1451C95.847 24.1116 96.4679 24.1283 97.1058 24.1283C97.6093 24.1283 98.0791 24.5815 98.0791 25.1018C98.0791 25.8235 98.0121 26.5619 97.9952 27.3003C98.3981 27.0488 98.6499 26.6459 98.9855 26.3438ZM36.2493 24.2123C37.1556 24.0278 38.0954 24.1788 39.0017 24.1284C39.5221 24.0614 40.0759 24.3969 40.1597 24.9173C40.227 25.3872 40.0925 25.8404 40.0422 26.2936C39.3542 30.607 38.6659 34.9202 37.9946 39.2335C37.9443 39.7204 37.5417 40.207 37.0212 40.1901C36.115 40.1901 35.2087 40.207 34.2857 40.1735C33.715 40.1062 33.2953 39.4519 33.4465 38.8979C34.1682 34.4169 34.8564 29.9524 35.578 25.4711C35.6116 24.9844 35.7458 24.4137 36.2493 24.2123ZM90.5602 24.4306C88.0594 23.9606 85.5085 23.6249 82.9741 23.8766C80.7084 24.162 78.4258 25.1859 77.0329 27.0488C75.1028 29.4991 74.4482 32.7887 74.8844 35.8434C75.1196 37.3034 75.7572 38.7804 76.949 39.6867C78.0566 40.5427 79.5503 40.66 80.8931 40.4419C82.7726 40.0726 84.367 38.8645 85.6763 37.5217C85.7433 38.0922 85.6091 38.6629 85.6427 39.2168C85.6763 39.7369 86.1462 40.2237 86.6664 40.1901H88.3785C88.8819 40.1901 89.3016 39.7204 89.3351 39.2335C90.0568 34.6852 90.7784 30.1536 91.4834 25.6222C91.5839 25.0515 91.131 24.4977 90.5602 24.4306ZM85.8442 32.3355C85.1728 33.5943 84.2329 34.7356 83.1755 35.7088C82.5714 36.2124 81.7992 36.7327 80.9771 36.565C80.1714 36.3971 79.7853 35.558 79.6008 34.8362C79.1812 32.9566 79.5672 30.9089 80.6245 29.281C81.0944 28.5256 81.8496 27.9551 82.7224 27.72C83.9475 27.4179 85.24 27.569 86.4317 27.9046L86.4987 27.9719C86.3477 29.4319 86.0623 30.8754 85.8442 32.3355ZM57.6146 29.8181C57.5977 28.1397 57.1446 26.3775 55.9698 25.1187C55.1643 24.2292 53.9558 23.776 52.781 23.7927C50.834 23.7257 49.0047 24.6824 47.5782 25.9578C47.2591 26.2097 47.041 26.5789 46.6887 26.7802C46.6887 26.2262 46.739 25.6725 46.7221 25.1019C46.739 24.5815 46.2522 24.1284 45.7487 24.1284H44.0367C43.4998 24.1284 43.0633 24.5984 43.0297 25.1186C41.9724 31.832 40.8984 38.5453 39.841 45.2587C39.69 45.8796 40.2271 46.5175 40.8649 46.5007C41.8047 46.4839 42.7614 46.5678 43.6844 46.4334C44.4229 46.232 44.4061 45.376 44.5236 44.7551C44.7921 43.2781 44.9768 41.8012 45.1446 40.3074C48.4509 40.9452 52.2943 40.509 54.7614 38.0081C56.7754 35.8097 57.7152 32.7719 57.6146 29.8181ZM52.9152 31.5131C52.8146 33.0572 52.2607 34.6181 51.1866 35.7424C49.7937 37.0685 47.6788 36.8837 45.9669 36.4307C45.9335 36.3803 45.883 36.2795 45.8662 36.2293C46.1347 34.7691 46.269 33.2922 46.6048 31.8488C47.5446 30.3048 48.6858 28.7438 50.3138 27.888C50.918 27.6027 51.7404 27.6698 52.1768 28.2237C52.9152 29.1467 52.9824 30.3887 52.9152 31.5131Z" fill="#107BD4" stroke="#107BD4" stroke-width="0.101"/>
</g>
</g>
<defs>
<linearGradient id="paint0_linear_45_4502" x1="151.1" y1="13.2527" x2="151.1" y2="49.3328" gradientUnits="userSpaceOnUse">
<stop stop-color="#F7E830"/>
<stop offset="1" stop-color="#FDCB06"/>
</linearGradient>
<radialGradient id="paint1_radial_45_4502" cx="0" cy="0" r="1" gradientUnits="userSpaceOnUse" gradientTransform="translate(150.911 29.7088) scale(29.347 29.347)">
<stop offset="0.596" stop-color="#F29405"/>
<stop offset="0.736" stop-color="#F7D01E"/>
<stop offset="1" stop-color="#FDCB06"/>
</radialGradient>
<linearGradient id="paint2_linear_45_4502" x1="161.139" y1="14.5548" x2="161.149" y2="16.2634" gradientUnits="userSpaceOnUse">
<stop stop-color="#FADA1C"/>
<stop offset="1" stop-color="#FDCB06"/>
</linearGradient>
<linearGradient id="paint3_linear_45_4502" x1="141.042" y1="14.473" x2="141.032" y2="16.1816" gradientUnits="userSpaceOnUse">
<stop stop-color="#FADA1C"/>
<stop offset="1" stop-color="#FDCB06"/>
</linearGradient>
<clipPath id="clip0_45_4502">
<rect width="164.714" height="43.4238" fill="white" transform="translate(8.28589 5.9118)"/>
</clipPath>
</defs>
</svg>
