<svg width="182" height="55" viewBox="0 0 182 55" fill="none" xmlns="http://www.w3.org/2000/svg">
<mask id="mask0_45_4535" style="mask-type:alpha" maskUnits="userSpaceOnUse" x="0" y="0" width="182" height="55">
<rect width="182" height="55" rx="6" fill="#D9D9D9"/>
</mask>
<g mask="url(#mask0_45_4535)">
<g clip-path="url(#clip0_45_4535)">
<path d="M97.9578 40.073H118.347V37.6378H101.453V29.8454H114.142V27.3813H101.453V20.2021H118.347V17.7757H97.9578V40.073Z" fill="black"/>
<path d="M108.553 14.1713L105.793 17.2037L114.459 14.1713H108.553Z" fill="black"/>
<path d="M152.575 37.6378V17.7757H149.388V40.073H170V37.6378H152.575Z" fill="black"/>
<path d="M131.558 17.7757L119.964 40.073H123.883L126.849 34.3018H140.755L143.747 40.073H147.625L136.021 17.7757H131.558ZM128.317 31.507L133.78 20.8567L139.308 31.507H128.317Z" fill="black"/>
<path d="M86.8939 30.7494C92.118 29.3863 92.6256 25.5855 92.5991 24.2267C92.2873 20.2434 89.5426 17.7757 84.6108 17.7757H70.2388V40.073H73.5151V30.7196H82.8717L89.7551 40.073H93.8847C93.8847 40.073 88.931 33.7781 86.8939 30.7494ZM84.1635 28.0851H73.5151V20.4149H84.5346C87.0717 20.4149 88.4988 21.573 89.0129 23.0442C89.353 24.0527 89.135 25.3765 88.5723 26.2778C87.6514 27.768 85.9019 28.0851 84.1635 28.0851Z" fill="black"/>
<path d="M50.5496 14C41.301 14 34.9974 20.3763 34.9974 28.0938C34.9974 36.2184 41.9607 41.9538 50.5496 41.9538C59.1327 41.9538 66.0932 36.3002 66.0932 28.0938C66.0932 20.3763 59.7116 14 50.5496 14ZM50.4386 39.186C44.04 39.186 38.7679 34.1581 38.7679 28.1013C38.7679 22.0527 43.7911 16.784 50.6866 16.784C57.4113 16.784 62.3545 22.0527 62.3545 28.1013C62.3545 34.1579 56.8344 39.186 50.4386 39.186Z" fill="black"/>
<path d="M26.746 25.6637H29.11L33.4011 17.7757H29.948L26.746 25.6637Z" fill="black"/>
<path d="M15.1886 37.6378V17.7757H12V40.073H32.6109V37.6378H15.1886Z" fill="black"/>
</g>
</g>
<defs>
<clipPath id="clip0_45_4535">
<rect width="158" height="27.9538" fill="white" transform="translate(12 14)"/>
</clipPath>
</defs>
</svg>
