<svg width="182" height="55" viewBox="0 0 182 55" fill="none" xmlns="http://www.w3.org/2000/svg">
<mask id="mask0_45_4635" style="mask-type:alpha" maskUnits="userSpaceOnUse" x="0" y="0" width="182" height="55">
<rect width="182" height="55" rx="6" fill="#D9D9D9"/>
</mask>
<g mask="url(#mask0_45_4635)">
<g clip-path="url(#clip0_45_4635)">
<path d="M154.433 23.2881C157.03 22.4212 159.919 21.8593 162.614 22.7102C164.156 23.2239 164.984 24.8453 164.968 26.3865C165 29.549 165.032 32.7116 164.919 35.8742C163.994 35.8742 163.068 35.8742 162.159 35.8581C162.046 35.3605 161.948 34.8628 161.835 34.3652C160.114 35.7137 157.825 36.6769 155.618 35.8742C153.118 34.8949 152.81 31.1865 154.692 29.4688C156.592 27.735 159.319 27.7189 161.705 27.1891C161.559 26.3865 161.429 25.359 160.471 25.1343C158.556 24.5724 156.624 25.4232 154.79 25.937C154.644 25.0701 154.53 24.1871 154.433 23.2881ZM157.484 30.6246C156.592 31.331 156.543 33.0487 157.712 33.4982C159.124 34.028 160.487 33.0809 161.591 32.3263C161.591 31.2989 161.591 30.2715 161.575 29.244C160.179 29.4848 158.604 29.6454 157.484 30.6246Z" fill="#231F20"/>
<path d="M82.4261 16.9629C83.9682 16.8666 85.5265 16.8666 87.0848 16.8987C88.9191 21.5061 90.104 26.3704 92.0844 30.9297C93.7238 26.2741 95.2334 21.5864 96.8404 16.9308C98.3825 16.8827 99.9246 16.8827 101.467 16.9308C101.921 23.256 102.57 29.5811 102.846 35.9063C101.645 35.9063 100.46 35.9063 99.2753 35.9063C98.8533 31.3952 98.6585 26.852 98.204 22.3409C96.3697 26.7717 95.0711 31.4273 93.3992 35.9224C92.2792 35.9705 91.1591 35.9545 90.0391 35.9063C88.4321 31.4113 87.1335 26.7878 85.2181 22.4051C84.8285 26.9002 84.65 31.4273 84.2279 35.9224C83.1566 35.9224 82.0853 35.9224 81.0139 35.9063C81.3223 29.5651 81.9879 23.272 82.4261 16.9629Z" fill="#231F20"/>
<path d="M135.457 18.3917C136.528 18.167 137.632 18.0225 138.72 17.9261C138.752 19.4512 138.752 20.9764 138.752 22.5175C139.645 22.5336 140.554 22.5817 141.463 22.5978C141.642 23.4647 141.788 24.3476 141.918 25.2306C140.863 25.2787 139.824 25.3269 138.785 25.343C138.801 27.6547 138.622 29.9825 138.866 32.2942C139.207 33.418 140.684 33.0969 141.577 33.3056C141.755 34.1886 141.885 35.0876 141.983 35.9866C140.278 36.1632 138.363 36.3879 136.837 35.4247C135.831 34.7665 135.522 33.5303 135.473 32.4226C135.344 30.0788 135.506 27.735 135.408 25.3911C134.792 25.3269 134.159 25.2627 133.542 25.1985C133.558 24.3476 133.59 23.5128 133.623 22.662C134.224 22.6138 134.824 22.5496 135.441 22.5015C135.408 21.1208 135.425 19.7563 135.457 18.3917Z" fill="#231F20"/>
<path d="M104.875 22.8707C106.028 22.646 107.197 22.5175 108.365 22.4533C109.421 25.5035 110.346 28.6019 111.433 31.636C112.537 28.6821 113.397 25.6319 114.371 22.6299C115.491 22.5657 116.595 22.5336 117.715 22.5496C116.465 26.5952 114.842 30.5123 113.462 34.5257C112.732 36.3719 112.277 38.4589 110.752 39.8555C109.502 40.9793 107.7 41.0274 106.125 40.7545C105.979 39.8716 105.833 38.9886 105.687 38.1217C106.466 38.1057 107.245 38.1538 108.008 38.0254C109.047 37.6722 109.956 36.4361 109.485 35.3444C107.976 31.1705 106.32 27.0607 104.875 22.8707Z" fill="#231F20"/>
<path d="M119.89 22.5656C120.832 22.5656 121.773 22.5817 122.699 22.5977C122.828 23.1757 122.942 23.7536 123.072 24.3315C124.517 23.1596 126.237 22.0198 128.218 22.3409C129.938 22.4051 131.302 23.9463 131.334 25.5998C131.415 29.0192 131.367 32.4547 131.35 35.8742C130.279 35.8902 129.208 35.9063 128.153 35.9223C127.844 32.8079 128.218 29.6774 127.99 26.5791C127.844 25.2948 126.237 24.9737 125.231 25.4874C124.371 25.9048 123.218 26.4988 123.283 27.6065C123.218 30.3677 123.315 33.129 123.267 35.8902C122.13 35.9063 121.01 35.9063 119.874 35.8742C119.89 31.4273 119.874 26.9965 119.89 22.5656Z" fill="#231F20"/>
<path d="M144.499 22.5656C145.456 22.5656 146.414 22.5656 147.372 22.5817C147.485 23.3523 147.615 24.1228 147.745 24.9095C148.93 23.6894 150.229 22.4212 152.047 22.2767C152.339 23.3362 152.501 24.4279 152.534 25.5195C150.748 25.9209 148.719 26.6593 147.924 28.4092C147.761 30.8975 147.956 33.4019 147.859 35.8902C146.739 35.9063 145.619 35.9063 144.499 35.8742C144.499 31.4273 144.499 26.9965 144.499 22.5656Z" fill="#231F20"/>
<path d="M30.1094 11.7615C31.2456 10.413 32.4793 8.96817 34.2324 8.42235C36.1965 7.90863 37.8684 9.43373 39.1021 10.7341C42.3323 14.3943 44.686 18.7128 46.8774 23.0473C48.0623 20.4145 49.5395 17.9101 51.0653 15.4699C52.5262 13.2545 54.0358 11.007 56.146 9.32135C57.12 8.58288 58.4672 7.87652 59.6847 8.50262C61.4053 9.40162 62.7039 10.8946 63.9213 12.3555C66.5023 15.6465 68.5313 19.3228 70.3656 23.0633C72.6543 27.8794 74.6347 32.9042 75.4625 38.1859C75.706 40.6261 75.9332 43.3713 74.4399 45.5064C73.2874 47.176 71.096 47.7539 69.1481 47.4168C67.46 46.8228 65.9828 45.7312 64.879 44.3505C62.2494 41.1398 60.6911 37.2548 59.2464 33.418C59.0354 32.7437 58.7757 32.0855 58.5484 31.4273C58.4023 32.1016 58.2075 32.7758 57.9803 33.434C56.5031 37.319 54.9286 41.2843 52.2178 44.5111C51.1302 45.8275 49.7018 46.8389 48.0786 47.4168C45.7411 47.8984 43.4848 46.6944 41.9752 44.9927C39.0209 41.8141 37.3814 37.7043 35.8718 33.7069C35.5797 32.8882 35.2875 32.0695 35.0765 31.2186C34.833 32.0695 34.5408 32.9203 34.2324 33.739C32.8689 37.4153 31.3106 41.1237 28.8432 44.2221C27.496 45.8114 25.7429 47.3686 23.5515 47.481C21.5225 47.6576 19.5583 46.3573 18.7792 44.5271C17.6754 41.9906 18 39.1331 18.487 36.4842C19.5421 31.4273 21.49 26.5951 23.795 21.9877C25.5643 18.4078 27.5771 14.908 30.1094 11.7615ZM31.2619 12.8853C28.7621 16.0318 26.7655 19.5636 24.9799 23.1436C22.7561 27.7831 20.7433 32.6153 19.883 37.7043C19.5746 39.117 19.5746 40.5779 19.7207 42.0067C19.8992 43.3552 20.4349 44.8 21.6848 45.4904C22.886 46.1807 24.428 45.9077 25.5156 45.1372C27.4635 43.7887 28.7621 41.7338 29.8821 39.695C32.2845 35.1518 33.859 30.2233 35.044 25.2627C36.3101 30.3517 37.9009 35.4247 40.4331 40.0642C41.4395 41.7819 42.4946 43.5639 44.1341 44.7519C44.9619 45.4904 46.0495 46.0041 47.1858 45.8756C48.4519 45.7472 49.507 44.9445 50.3998 44.0937C51.9094 42.5525 53.0132 40.6582 53.9871 38.7639C56.0649 34.5578 57.4933 30.0627 58.6133 25.5356C60.0093 31.026 61.7462 36.5324 64.7329 41.4127C65.853 43.1144 67.1678 44.8803 69.1319 45.683C70.5116 46.2449 72.2647 45.7472 73.0601 44.479C74.0178 42.9539 74.099 41.0595 73.9529 39.3257C73.7581 36.5163 72.9303 33.7872 72.0212 31.1223C70.2032 25.9851 67.8171 21.0406 64.9115 16.4331C63.5642 14.3783 62.1682 12.3073 60.2853 10.6699C59.6197 10.0919 58.6296 9.53005 57.7855 10.108C56.1623 11.0873 55.0422 12.6445 53.906 14.1214C51.1465 18.0064 48.8739 22.2446 47.0072 26.6112C46.9585 26.6754 46.8287 26.8038 46.78 26.8681C46.6176 26.3704 46.4553 25.8888 46.2443 25.4072C44.3289 21.3135 42.2024 17.284 39.4916 13.6559C38.5664 12.4518 37.6087 11.2317 36.3588 10.3488C35.8231 9.97956 35.1089 9.64243 34.4759 9.9635C33.1286 10.5735 32.1871 11.7776 31.2619 12.8853Z" fill="#FEFEFE"/>
<path d="M31.2618 12.8853C32.187 11.7776 33.1448 10.5896 34.492 9.97957C35.1251 9.6585 35.8393 9.97957 36.375 10.3649C37.6249 11.2478 38.5826 12.484 39.5078 13.6719C42.2024 17.3161 44.3451 21.3295 46.2605 25.4232C46.4877 25.8888 46.6501 26.3865 46.7961 26.8841C44.2964 22.6941 42.0238 18.3436 38.9072 14.5549C37.9982 13.4953 37.0405 12.3716 35.7257 11.8097C34.979 11.4886 34.2161 11.906 33.5993 12.3074C31.3592 14.1696 29.7035 16.5937 28.1452 19.0018C24.4767 24.7811 21.7172 31.1223 19.8992 37.7043C20.7595 32.6153 22.7561 27.7831 24.9961 23.1436C26.7654 19.5636 28.762 16.0318 31.2618 12.8853Z" fill="#9E242E"/>
<path d="M57.7855 10.0919C58.6296 9.514 59.6197 10.0759 60.2853 10.6538C62.1682 12.2752 63.5642 14.3462 64.9115 16.4171C67.8171 21.0406 70.2194 25.9691 72.0212 31.1062C72.9302 33.7712 73.7581 36.4842 73.9529 39.3097C73.6445 37.3511 73.125 35.4247 72.4595 33.5625C70.7389 28.4413 68.3527 23.5289 65.4634 18.9536C64.1972 16.995 62.85 15.0525 61.2267 13.3829C60.5774 12.7408 59.8794 12.0665 58.9867 11.7776C58.2887 11.5689 57.6556 12.0505 57.0875 12.3876C55.5779 13.5595 54.4091 15.0686 53.2891 16.5937C51.3088 19.371 49.5394 22.2928 47.9487 25.2948C47.689 25.7764 47.3643 26.2259 47.0072 26.6273C48.8739 22.2446 51.1464 18.0225 53.9059 14.1375C55.0422 12.6445 56.1785 11.0712 57.7855 10.0919Z" fill="#9E242E"/>
<path d="M33.5993 12.3074C34.2161 11.906 34.979 11.4886 35.7257 11.8097C37.0405 12.3716 37.9982 13.4953 38.9072 14.5549C42.0238 18.3435 44.2964 22.6941 46.7799 26.8841C45.2216 31.2668 43.3711 35.6655 43.2575 40.3692C43.1763 41.8783 43.5822 43.3552 44.1503 44.7519C42.5108 43.5639 41.4395 41.782 40.4493 40.0642C37.9333 35.4247 36.3263 30.3678 35.0602 25.2627C34.1512 21.0245 33.3071 16.69 33.5993 12.3074Z" fill="#FF912E"/>
<path d="M57.1038 12.3715C57.6719 12.0344 58.305 11.5528 59.003 11.7615C59.8958 12.0505 60.5937 12.7247 61.243 13.3669C62.8663 15.0525 64.2136 16.979 65.4797 18.9375C68.369 23.5128 70.7552 28.4253 72.4758 33.5464C73.1576 35.4086 73.6608 37.3351 73.9692 39.2936C74.1153 41.0274 74.0341 42.9217 73.0764 44.4468C72.281 45.7311 70.5442 46.2128 69.1482 45.6509C67.1841 44.8642 65.8692 43.0823 64.7492 41.3806C61.7625 36.5163 60.0256 31.0099 58.6296 25.5035C57.6882 21.2171 56.8116 16.8184 57.1038 12.3715Z" fill="#F41CB2"/>
<path d="M28.1453 19.0018C29.7036 16.5937 31.3593 14.1696 33.5994 12.3074C33.3072 16.674 34.1513 21.0245 35.0765 25.2627C33.8915 30.2394 32.3008 35.1518 29.9146 39.695C28.7946 41.7338 27.496 43.7887 25.5481 45.1372C24.4606 45.9078 22.9185 46.1807 21.7173 45.4904C20.4674 44.8001 19.9317 43.3392 19.7532 42.0067C19.5909 40.5779 19.6071 39.1171 19.9155 37.7043C21.7011 31.1223 24.4768 24.7811 28.1453 19.0018Z" fill="#F41CB2"/>
<path d="M53.3054 16.5777C54.4254 15.0526 55.5941 13.5435 57.1037 12.3716C56.8115 16.8024 57.6881 21.2172 58.6458 25.5196C57.5258 30.0628 56.0811 34.5417 54.0196 38.7478C53.0456 40.6582 51.9418 42.5365 50.4322 44.0776C49.5557 44.9285 48.4843 45.7312 47.2182 45.8596C46.082 45.988 44.9944 45.4743 44.1665 44.7358C43.5984 43.3392 43.1926 41.8622 43.2738 40.3532C43.3874 35.6495 45.2379 31.2347 46.7962 26.8681C46.8449 26.8039 46.9747 26.6754 47.0234 26.6112C47.3806 26.1938 47.7052 25.7604 47.9649 25.2788C49.5719 22.2767 51.325 19.3549 53.3054 16.5777Z" fill="#F25511"/>
</g>
</g>
<defs>
<clipPath id="clip0_45_4635">
<rect width="147" height="39.2513" fill="white" transform="translate(18 8.26178)"/>
</clipPath>
</defs>
</svg>
