<svg width="182" height="55" viewBox="0 0 182 55" fill="none" xmlns="http://www.w3.org/2000/svg">
<mask id="mask0_45_4655" style="mask-type:alpha" maskUnits="userSpaceOnUse" x="0" y="0" width="182" height="55">
<rect width="182" height="55" rx="6" fill="#D9D9D9"/>
</mask>
<g mask="url(#mask0_45_4655)">
<path fill-rule="evenodd" clip-rule="evenodd" d="M54.618 17.2255L53.4151 22.2339H52.9018C52.8328 20.3363 52.4421 20.2585 51.7449 19.4264C51.0553 18.5865 50.0823 18.1665 48.8257 18.1665C47.5692 18.1665 46.2437 18.6798 44.9489 19.6908C43.654 20.7018 42.5507 22.265 41.639 24.3803C40.7349 26.4879 40.2752 28.7043 40.2752 31.0296C40.2752 33.0283 40.6812 34.5526 41.4857 35.6103C42.2902 36.6601 43.2403 37.1812 44.3282 37.1812C44.788 37.1812 45.3396 37.0334 45.9985 36.7457L47.4006 31.3796C47.6305 30.4775 47.7531 29.8942 47.7531 29.6142C47.7531 29.2409 47.6075 29.0232 47.324 28.6888C47.0712 28.3932 47.1401 28.2999 46.4506 28.2999L46.5885 27.7322H53.3079L53.1853 28.2999C52.7486 28.4866 52.9248 28.4321 52.6566 28.6032C52.3961 28.7665 52.1892 28.9998 52.036 29.3187C51.9441 29.5053 51.8062 29.9953 51.6223 30.7885L49.9673 37.0334C48.0825 37.8345 46.0981 38.2311 44.0141 38.2311C42.4051 38.2311 41.0413 37.9045 39.9074 37.259C38.7888 36.6135 37.854 35.5791 37.1032 34.1715C36.3676 32.7639 35.9999 31.1618 35.9999 29.3654C35.9999 25.5313 37.5322 22.3661 40.5893 19.8853C42.9798 17.9643 45.6997 17 48.7414 17C49.2701 17 49.7605 17.0311 50.2125 17.0933C50.542 17.14 51.1243 17.28 51.9594 17.5133C52.4957 17.661 52.8635 17.7388 53.0627 17.7388C53.4611 17.7388 53.7676 17.7155 54.12 17.2255H54.618Z" fill="#2C2D8B"/>
<path fill-rule="evenodd" clip-rule="evenodd" d="M26.4533 29.4743C26.3997 29.0699 26.3614 28.7121 26.3307 28.3933C26.3001 28.0666 26.2848 27.7789 26.2848 27.5378C26.2848 26.0524 26.7368 24.8159 27.6486 23.836C28.5527 22.8483 29.6253 22.3506 30.8665 22.3506C31.6557 22.3506 32.2916 22.5761 32.7667 23.0272C33.2493 23.4782 33.4945 24.0226 33.4945 24.6526C33.4945 25.4458 33.257 26.1302 32.7896 26.7057C32.0924 27.5689 30.9815 28.3311 29.4491 28.9921C29.9395 30.5864 30.2766 31.6207 30.4605 32.0873C30.6443 32.554 30.8895 33.0672 31.196 33.6116C31.6097 33.145 31.9162 32.6939 32.0924 32.2507C32.2763 31.8074 32.3682 31.4418 32.3682 31.1619C32.3682 30.9208 32.2993 30.7186 32.1614 30.5397C32.0235 30.3609 31.7936 30.2286 31.4795 30.1509L31.6097 29.7465H35.8237L35.6628 30.1509C35.2644 30.2442 34.9349 30.4075 34.6668 30.6408C34.3986 30.8741 33.8929 31.4807 33.1651 32.4762C32.6441 33.1917 32.1307 33.8138 31.6174 34.3582C32.1997 35.1826 32.736 35.7503 33.2187 36.0614C33.5252 36.2713 33.8776 36.3724 34.276 36.3724C34.5059 36.3724 34.6974 36.3336 34.866 36.2636C35.0345 36.1858 35.2414 36.0458 35.4789 35.8436H35.8314C35.4789 36.6057 35.0116 37.1812 34.4369 37.5701C33.8623 37.9589 33.2034 38.1456 32.4755 38.1456C31.8626 38.1456 31.3109 38.0212 30.8206 37.7801C30.3302 37.5312 29.8092 37.1035 29.2652 36.5124C28.5144 37.0568 27.7482 37.4612 26.982 37.7412C26.2235 38.0134 25.4496 38.1534 24.6758 38.1534C23.5495 38.1534 22.6531 37.8345 21.9865 37.1968C21.3199 36.5591 20.9905 35.8047 20.9905 34.9493C20.9905 34.2649 21.1361 33.6583 21.4195 33.1217C21.703 32.5851 22.247 32.0173 23.0438 31.403C23.8407 30.7964 24.9823 30.1509 26.4687 29.4743H26.4533ZM29.2499 28.16C29.8552 27.7245 30.2996 27.2734 30.5754 26.8146C30.9661 26.1846 31.1577 25.508 31.1577 24.8003C31.1577 24.2637 31.0504 23.8515 30.8282 23.5638C30.652 23.346 30.4298 23.2449 30.1616 23.2372C29.8322 23.2372 29.5717 23.3694 29.3801 23.6416C29.1043 24.046 28.9664 24.6603 28.9664 25.5003C28.9664 25.8813 28.9894 26.2935 29.0354 26.7368C29.089 27.1723 29.1579 27.6467 29.2576 28.16H29.2499ZM26.6142 30.3142C25.7714 30.7808 25.1662 31.2708 24.8061 31.7763C24.4459 32.274 24.2697 32.8728 24.2697 33.5727C24.2697 34.4282 24.5302 35.1515 25.0512 35.7347C25.5799 36.318 26.1622 36.6057 26.8058 36.6057C27.0816 36.6057 27.3881 36.5435 27.7252 36.4191C28.0623 36.2947 28.4301 36.108 28.8208 35.8592C28.3764 35.1748 27.9397 34.3115 27.526 33.2772C27.1123 32.2351 26.8134 31.2552 26.6142 30.322V30.3142Z" fill="#2C2D8B"/>
<path fill-rule="evenodd" clip-rule="evenodd" d="M15.5276 28.5488L13.842 34.4282C13.6045 35.2603 13.4895 35.8436 13.4895 36.1858C13.4895 36.6602 13.6428 37.0257 13.9492 37.2745C14.2557 37.5156 13.9263 37.3601 14.7154 37.6634L14.5162 38.2389H7L7.16856 37.6634C7.62061 37.4534 7.3218 37.5701 7.67424 37.4145C8.03434 37.2512 8.32549 36.9868 8.56301 36.6213C8.73923 36.3802 8.99973 35.6491 9.34451 34.4282L13.1984 21.0362C13.4666 20.1419 13.5968 19.5042 13.5968 19.1231C13.5968 18.742 13.4282 18.4154 13.0911 18.1588C12.754 17.8866 13.1448 18.2365 12.5701 17.7233L12.6008 17.1478H19.6573C21.9175 17.1478 23.5418 17.4355 24.5302 18.0188C26.0625 18.9287 26.8287 20.2974 26.8287 22.125C26.8287 23.9526 26.0625 25.4458 24.5302 26.7912C23.0055 28.1288 20.9521 28.7976 18.3701 28.7976C17.5963 28.7976 16.6462 28.7121 15.5352 28.5488H15.5276ZM15.834 27.3511C16.5006 27.4367 17.0523 27.4756 17.489 27.4756C18.8988 27.4756 20.0097 26.8223 20.8142 25.5158C21.6187 24.2092 22.0248 22.8483 22.0248 21.4251C22.0248 20.4607 21.7643 19.7142 21.2433 19.1853C20.7223 18.6487 20.0021 18.3765 19.0826 18.3765C18.8911 18.3765 18.6459 18.3843 18.3624 18.4076L15.834 27.3511Z" fill="#2C2D8B"/>
<path fill-rule="evenodd" clip-rule="evenodd" d="M61.0874 28.0504L60.2382 31.0153C60.1192 31.4326 60.0597 31.729 60.0597 31.8992C60.0597 32.1408 60.1354 32.322 60.2923 32.4483C60.4491 32.5691 60.7953 32.635 61.3416 32.646L61.2389 32.9369H56.1272L56.2137 32.646C56.6465 32.646 56.9548 32.602 57.1333 32.5197C57.3118 32.4373 57.4633 32.3055 57.5823 32.1189C57.6688 31.9981 57.7986 31.6302 57.9771 31.0153L59.9136 24.2675C60.0489 23.8173 60.1138 23.4988 60.1138 23.3011C60.1138 23.109 60.0272 22.9443 59.8595 22.8125C59.6918 22.6752 59.3835 22.6039 58.9346 22.5929L59.0211 22.3019H63.1699C64.3059 22.3019 65.1281 22.4501 65.6257 22.7411C66.3992 23.2023 66.7833 23.8886 66.7833 24.811C66.7833 25.7334 66.3992 26.4856 65.6257 27.161C64.8576 27.8363 63.8245 28.1712 62.5208 28.1712C62.1314 28.1712 61.6554 28.1273 61.0928 28.0449L61.0874 28.0504ZM61.2443 27.4465C61.5796 27.4904 61.8555 27.5069 62.0773 27.5069C62.7859 27.5069 63.3484 27.1774 63.7541 26.5186C64.1598 25.8597 64.3654 25.1734 64.3654 24.4596C64.3654 23.971 64.2356 23.5976 63.9705 23.3286C63.7055 23.0596 63.343 22.9223 62.8833 22.9223C62.7859 22.9223 62.6669 22.9223 62.5208 22.9388L61.2443 27.4465Z" fill="#2C2D8B"/>
<path fill-rule="evenodd" clip-rule="evenodd" d="M70.0072 25.6675L68.8388 30.0709C69.7962 27.9241 70.5156 26.6009 71.0024 26.1068C71.2837 25.8158 71.5866 25.6675 71.9004 25.6675C72.1167 25.6675 72.2898 25.7499 72.4251 25.9091C72.5603 26.0683 72.6252 26.288 72.6252 26.5845C72.6252 27.0896 72.5062 27.5178 72.2628 27.8637C72.1059 28.0834 71.9382 28.1932 71.7435 28.1932C71.538 28.1932 71.3811 28.0943 71.2783 27.9022C71.1755 27.71 71.1052 27.5947 71.0619 27.5672C71.0187 27.5288 70.9754 27.5123 70.9321 27.5123C70.878 27.5123 70.8239 27.5288 70.7699 27.5618C70.6563 27.6222 70.5048 27.7759 70.3209 28.023C70.1424 28.2645 69.9152 28.6708 69.6502 29.2364C69.3797 29.8074 69.1741 30.2905 69.0227 30.6858C68.8712 31.0757 68.6657 31.8279 68.3952 32.9369H66.5291L67.8056 27.7429C67.8976 27.3586 67.9463 27.1006 67.9463 26.9743C67.9463 26.8315 67.9192 26.7217 67.8705 26.6448C67.8218 26.568 67.7569 26.5076 67.6704 26.4746C67.5893 26.4362 67.4107 26.4197 67.1457 26.4197L67.216 26.1946L69.5474 25.6785H70.0126L70.0072 25.6675Z" fill="#2C2D8B"/>
<path fill-rule="evenodd" clip-rule="evenodd" d="M77.6125 25.6675C78.0182 25.6675 78.4022 25.7664 78.7538 25.9585C79.1163 26.1452 79.3867 26.4088 79.5652 26.7492C79.7491 27.0896 79.8411 27.4629 79.8411 27.8802C79.8411 28.7257 79.6085 29.5713 79.1379 30.4168C78.6727 31.2623 78.0615 31.9322 77.2988 32.4208C76.5361 32.9095 75.768 33.1511 74.9999 33.1511C74.3021 33.1511 73.7558 32.9369 73.3717 32.5142C72.9931 32.0914 72.7983 31.5753 72.7983 30.9604C72.7983 30.2356 72.939 29.5548 73.2257 28.9234C73.5124 28.2865 73.8748 27.732 74.3129 27.2598C74.7565 26.7821 75.2649 26.3978 75.8329 26.1068C76.4063 25.8103 76.9959 25.662 77.6071 25.662L77.6125 25.6675ZM77.2988 26.0848C77.0283 26.0848 76.8011 26.1672 76.6172 26.3264C76.2548 26.6558 75.8491 27.4245 75.3947 28.6379C74.9404 29.8458 74.7132 30.9329 74.7132 31.9047C74.7132 32.1463 74.7835 32.344 74.9296 32.4977C75.0756 32.6569 75.2433 32.7338 75.438 32.7338C75.6327 32.7338 75.8167 32.6734 75.9735 32.5471C76.2007 32.3604 76.4766 31.9377 76.8065 31.2843C77.1365 30.6254 77.407 29.9007 77.6179 29.1156C77.8289 28.3194 77.9316 27.5947 77.9316 26.9358C77.9316 26.6668 77.8667 26.4527 77.7369 26.3099C77.6071 26.1562 77.461 26.0848 77.288 26.0848H77.2988Z" fill="#2C2D8B"/>
<path fill-rule="evenodd" clip-rule="evenodd" d="M86.2618 31.0482L86.4944 31.2623C85.9967 31.8663 85.5045 32.311 85.0177 32.5965C84.374 32.9754 83.7087 33.1621 83.0163 33.1621C82.5511 33.1621 82.14 33.0632 81.783 32.8656C81.426 32.6624 81.1663 32.3824 80.9932 32.02C80.8256 31.6522 80.739 31.2788 80.739 30.9C80.739 30.0435 80.9662 29.2034 81.426 28.3744C81.8858 27.5453 82.4862 26.8864 83.2381 26.4088C83.9899 25.9201 84.7256 25.6785 85.4558 25.6785C86.04 25.6785 86.4727 25.8103 86.7702 26.0684C87.0623 26.3319 87.2084 26.6558 87.2084 27.0402C87.2084 27.3916 87.1002 27.688 86.8784 27.9351C86.6567 28.1822 86.4078 28.303 86.1374 28.303C85.8994 28.303 85.7046 28.2261 85.5424 28.0669C85.3855 27.9077 85.3098 27.7265 85.3098 27.5123C85.3098 27.2323 85.4504 26.9853 85.7263 26.7766C85.9156 26.6284 86.013 26.5021 86.013 26.3923C86.013 26.299 85.9751 26.2221 85.8994 26.1672C85.7966 26.0848 85.6614 26.0409 85.4991 26.0409C85.0664 26.0409 84.6607 26.2166 84.2766 26.5735C83.7736 27.0457 83.3841 27.6386 83.119 28.3579C82.8486 29.0771 82.7188 29.7634 82.7188 30.4113C82.7188 30.9219 82.854 31.3337 83.1299 31.6412C83.4003 31.9432 83.7249 32.0969 84.1035 32.0969C84.4335 32.0969 84.7905 32.0091 85.1691 31.8388C85.5532 31.6686 85.921 31.4051 86.2672 31.0537L86.2618 31.0482Z" fill="#2C2D8B"/>
<path fill-rule="evenodd" clip-rule="evenodd" d="M91.8764 23.7569L91.2598 25.8872H92.2713L92.0008 26.7876H91.0055L89.7182 31.3338C89.637 31.6138 89.5937 31.8279 89.5937 31.9761C89.5937 32.042 89.6154 32.1024 89.6641 32.1573C89.7128 32.2067 89.7614 32.2287 89.8209 32.2287C89.9075 32.2287 89.9994 32.1903 90.0914 32.1189C90.3294 31.9377 90.6053 31.6193 90.919 31.1636L91.1895 31.3338C90.8324 31.9597 90.443 32.4209 90.0157 32.7119C89.5883 33.0029 89.1664 33.1511 88.7553 33.1511C88.4037 33.1511 88.1333 33.0633 87.9385 32.8821C87.7492 32.7009 87.6519 32.4703 87.6519 32.1903C87.6519 31.8883 87.7168 31.4985 87.852 31.0208L89.0745 26.7821H88.0251L88.182 26.2002C88.8419 25.9531 89.399 25.6676 89.848 25.3382C90.3024 25.0087 90.8487 24.4761 91.487 23.7459H91.8872L91.8764 23.7569Z" fill="#2C2D8B"/>
<path fill-rule="evenodd" clip-rule="evenodd" d="M94.2078 29.994C94.1592 30.3345 94.1375 30.6145 94.1375 30.8341C94.1375 31.2239 94.2457 31.5369 94.4675 31.773C94.6947 32.0091 94.9976 32.1244 95.3708 32.1244C95.744 32.1244 96.0902 32.0365 96.4526 31.8608C96.8205 31.6851 97.2424 31.3722 97.7184 30.9274L97.951 31.1416C97.3614 31.8663 96.7826 32.3879 96.22 32.6954C95.6575 33.0028 95.0408 33.1566 94.3593 33.1566C93.4992 33.1566 92.9042 32.9479 92.5743 32.5307C92.2443 32.1134 92.082 31.6302 92.082 31.0812C92.082 30.2246 92.3254 29.3681 92.8177 28.5116C93.3099 27.6551 93.9806 26.9688 94.8245 26.4527C95.6737 25.9366 96.5284 25.6785 97.383 25.6785C97.8158 25.6785 98.1403 25.7828 98.3621 25.9915C98.5839 26.2001 98.692 26.4637 98.692 26.7821C98.692 27.161 98.5839 27.5343 98.3675 27.8967C98.07 28.3908 97.6913 28.7861 97.2424 29.0881C96.788 29.3846 96.285 29.6152 95.7224 29.7689C95.3438 29.8733 94.8407 29.9501 94.2078 30.005V29.994ZM94.2782 29.5878C94.7325 29.5219 95.0787 29.4285 95.3275 29.3132C95.5818 29.1924 95.8252 29.0058 96.0632 28.7477C96.3066 28.4842 96.5121 28.1602 96.6906 27.7704C96.8637 27.3751 96.9503 27.0017 96.9557 26.6558C96.9557 26.5076 96.9124 26.3923 96.8313 26.3099C96.7556 26.2276 96.6528 26.1837 96.5284 26.1837C96.2796 26.1837 96.0037 26.3593 95.6954 26.7107C95.1274 27.3476 94.6568 28.3085 94.2836 29.5878H94.2782Z" fill="#2C2D8B"/>
<path fill-rule="evenodd" clip-rule="evenodd" d="M102.5 25.6675L101.332 30.0709C102.289 27.9241 103.009 26.6009 103.495 26.1068C103.777 25.8158 104.08 25.6675 104.393 25.6675C104.61 25.6675 104.783 25.7499 104.918 25.9091C105.053 26.0683 105.118 26.288 105.118 26.5845C105.118 27.0896 104.999 27.5178 104.756 27.8637C104.599 28.0834 104.431 28.1932 104.236 28.1932C104.031 28.1932 103.874 28.0943 103.771 27.9022C103.668 27.71 103.598 27.5947 103.555 27.5672C103.512 27.5288 103.468 27.5123 103.425 27.5123C103.371 27.5123 103.317 27.5288 103.263 27.5618C103.149 27.6222 102.998 27.7759 102.814 28.023C102.635 28.2645 102.408 28.6708 102.143 29.2364C101.873 29.8074 101.667 30.2905 101.516 30.6858C101.364 31.0757 101.159 31.8279 100.888 32.9369H99.022L100.299 27.7429C100.39 27.3586 100.439 27.1006 100.439 26.9743C100.439 26.8315 100.412 26.7217 100.363 26.6448C100.315 26.568 100.25 26.5076 100.163 26.4746C100.082 26.4362 99.9037 26.4197 99.6386 26.4197L99.7089 26.1946L102.04 25.6785H102.505L102.5 25.6675Z" fill="#2C2D8B"/>
<path fill-rule="evenodd" clip-rule="evenodd" d="M113.443 27.0731C113.405 26.7931 113.378 26.535 113.356 26.3154C113.335 26.0848 113.324 25.8872 113.324 25.7115C113.324 24.6683 113.643 23.8008 114.281 23.109C114.92 22.4117 115.671 22.0658 116.542 22.0658C117.099 22.0658 117.543 22.225 117.878 22.5435C118.219 22.8619 118.387 23.2462 118.387 23.6855C118.387 24.2455 118.225 24.7232 117.895 25.1295C117.408 25.7334 116.623 26.2715 115.547 26.7382C115.893 27.8637 116.131 28.5885 116.256 28.9179C116.385 29.2473 116.559 29.6042 116.775 29.9941C117.067 29.6646 117.278 29.3462 117.408 29.0387C117.538 28.7258 117.603 28.4677 117.603 28.27C117.603 28.1053 117.554 27.9571 117.456 27.8308C117.359 27.7045 117.197 27.6167 116.975 27.5563L117.067 27.2763H120.031L119.918 27.5563C119.642 27.6222 119.404 27.7375 119.214 27.9022C119.025 28.0614 118.674 28.4952 118.154 29.1924C117.786 29.6921 117.424 30.1368 117.067 30.5156C117.478 31.0976 117.857 31.493 118.192 31.7126C118.409 31.8608 118.657 31.9322 118.933 31.9322C119.09 31.9322 119.231 31.9047 119.35 31.8553C119.469 31.8059 119.609 31.7016 119.782 31.5588H120.031C119.782 32.0969 119.458 32.5032 119.052 32.7722C118.647 33.0413 118.187 33.1785 117.667 33.1785C117.235 33.1785 116.845 33.0907 116.499 32.9205C116.153 32.7448 115.79 32.4428 115.401 32.0255C114.871 32.4099 114.335 32.6954 113.794 32.8875C113.259 33.0797 112.718 33.1785 112.172 33.1785C111.377 33.1785 110.749 32.9534 110.279 32.5032C109.808 32.053 109.575 31.5259 109.575 30.9219C109.575 30.4443 109.678 30.0105 109.878 29.6372C110.078 29.2583 110.462 28.8575 111.02 28.4293C111.582 28.001 112.383 27.5508 113.427 27.0731H113.443ZM115.412 26.1452C115.839 25.8378 116.153 25.5193 116.348 25.1954C116.618 24.7506 116.759 24.2785 116.759 23.7788C116.759 23.4 116.683 23.1145 116.526 22.9113C116.402 22.7576 116.245 22.6862 116.056 22.6862C115.823 22.6862 115.639 22.7796 115.509 22.9662C115.314 23.2462 115.217 23.6855 115.217 24.273C115.217 24.542 115.233 24.8275 115.266 25.1405C115.304 25.4479 115.352 25.7829 115.423 26.1452H115.412ZM113.556 27.6606C112.967 27.99 112.54 28.3304 112.285 28.6873C112.031 29.0387 111.907 29.456 111.907 29.9501C111.907 30.5486 112.091 31.0592 112.453 31.471C112.821 31.8773 113.237 32.0804 113.686 32.0804C113.881 32.0804 114.097 32.0365 114.335 31.9487C114.573 31.8608 114.828 31.729 115.109 31.5588C114.795 31.0812 114.492 30.4717 114.2 29.7415C113.913 29.0113 113.697 28.3195 113.556 27.6661V27.6606Z" fill="#2C2D8B"/>
<path fill-rule="evenodd" clip-rule="evenodd" d="M136.93 22.0658L136.205 25.4754H135.913C135.869 24.4816 135.648 23.7678 135.247 23.3341C134.852 22.8949 134.29 22.6752 133.57 22.6752C132.851 22.6752 132.088 22.9443 131.347 23.4769C130.606 24.0039 129.973 24.822 129.449 25.9311C128.929 27.0347 128.67 28.1932 128.67 29.4121C128.67 30.4553 128.902 31.2569 129.362 31.8114C129.827 32.3605 130.368 32.635 130.99 32.635C131.255 32.635 131.574 32.5581 131.948 32.4099L132.748 29.6042C132.883 29.132 132.948 28.8246 132.948 28.6818C132.948 28.4897 132.867 28.3249 132.7 28.1932C132.537 28.0559 132.261 27.99 131.867 27.99L131.942 27.6935H136.459L136.389 27.99C136.118 28.0065 135.913 28.0559 135.756 28.1493C135.604 28.2316 135.485 28.3579 135.399 28.5226C135.345 28.6214 135.269 28.8795 135.161 29.2913L134.209 32.5581C133.127 32.9754 131.991 33.184 130.796 33.184C129.876 33.184 129.092 33.0138 128.443 32.6734C127.799 32.333 127.263 31.7949 126.836 31.0592C126.414 30.3235 126.203 29.4834 126.203 28.5446C126.203 26.5405 127.079 24.8824 128.837 23.5812C130.211 22.5709 131.769 22.0713 133.516 22.0713C133.819 22.0713 134.101 22.0878 134.36 22.1207C134.549 22.1482 134.885 22.2195 135.366 22.3403C135.675 22.4172 135.886 22.4556 135.999 22.4556C136.226 22.4556 136.437 22.3293 136.637 22.0713H136.924L136.93 22.0658Z" fill="#2C2D8B"/>
<path fill-rule="evenodd" clip-rule="evenodd" d="M144.113 25.7774L142.615 30.9878L142.458 31.6247C142.441 31.7016 142.436 31.762 142.436 31.7949C142.436 31.8553 142.458 31.9102 142.496 31.9596C142.544 32.009 142.588 32.031 142.636 32.031C142.744 32.031 142.896 31.9487 143.085 31.7784C143.161 31.7126 143.35 31.471 143.642 31.0592L143.913 31.2019C143.545 31.8828 143.155 32.3769 142.739 32.6899C142.328 32.9973 141.884 33.1511 141.403 33.1511C141.111 33.1511 140.884 33.0742 140.732 32.926C140.575 32.7667 140.5 32.5746 140.5 32.3385C140.5 32.1353 140.581 31.7565 140.748 31.2019L140.932 30.5651C140.337 31.6028 139.764 32.344 139.212 32.7777C138.893 33.0303 138.552 33.1511 138.195 33.1511C137.719 33.1511 137.378 32.9534 137.168 32.5636C136.957 32.1683 136.848 31.7181 136.848 31.2239C136.848 30.4882 137.07 29.6427 137.514 28.6928C137.957 27.7375 138.536 26.9688 139.261 26.3868C139.85 25.9091 140.408 25.6675 140.927 25.6675C141.214 25.6675 141.446 25.7554 141.619 25.9256C141.792 26.0903 141.922 26.4033 142.003 26.848L142.279 25.8817L144.108 25.7719L144.113 25.7774ZM141.641 27.2708C141.641 26.848 141.576 26.5405 141.446 26.3539C141.354 26.2221 141.23 26.1562 141.068 26.1562C140.905 26.1562 140.743 26.2331 140.575 26.3923C140.229 26.7162 139.856 27.3751 139.456 28.3689C139.061 29.3571 138.861 30.2082 138.861 30.9329C138.861 31.2074 138.904 31.4106 138.99 31.5369C139.082 31.6577 139.185 31.7181 139.293 31.7181C139.526 31.7181 139.759 31.5808 139.997 31.3118C140.337 30.9274 140.64 30.4498 140.916 29.8952C141.398 28.9124 141.641 28.0394 141.641 27.2763V27.2708Z" fill="#2C2D8B"/>
<path fill-rule="evenodd" clip-rule="evenodd" d="M148.646 25.6675L147.656 29.0387C148.321 28.0065 148.803 27.3092 149.106 26.9468C149.554 26.4197 149.922 26.0738 150.209 25.9146C150.501 25.7554 150.793 25.673 151.091 25.673C151.426 25.673 151.669 25.7773 151.816 25.9805C151.967 26.1836 152.037 26.4088 152.037 26.6558C152.037 26.9029 151.967 27.2872 151.826 27.7869L151.48 29.0497C152.151 28.0065 152.632 27.3092 152.924 26.9633C153.379 26.4307 153.774 26.0683 154.104 25.8817C154.336 25.7444 154.585 25.6785 154.845 25.6785C155.115 25.6785 155.342 25.7719 155.526 25.9585C155.71 26.1397 155.802 26.3813 155.802 26.6778C155.802 27.0127 155.726 27.4465 155.57 27.979L154.715 30.9C154.585 31.3337 154.52 31.6137 154.52 31.74C154.52 31.7839 154.536 31.8224 154.569 31.8553C154.607 31.8937 154.645 31.9102 154.682 31.9102C154.736 31.9102 154.785 31.8937 154.828 31.8553C155.012 31.7016 155.207 31.482 155.413 31.191C155.461 31.1306 155.526 31.0317 155.624 30.9L155.889 31.0702C155.532 31.7455 155.142 32.2396 154.715 32.5526C154.293 32.8656 153.903 33.0248 153.541 33.0248C153.227 33.0248 152.973 32.9369 152.784 32.7667C152.594 32.591 152.497 32.3824 152.497 32.1463C152.497 31.9102 152.562 31.5808 152.692 31.1251L153.563 28.0669C153.682 27.6441 153.741 27.3806 153.741 27.2763C153.741 27.2378 153.725 27.2049 153.687 27.1719C153.649 27.1335 153.617 27.117 153.579 27.117C153.514 27.117 153.444 27.1335 153.379 27.1664C153.281 27.2213 153.13 27.3531 152.924 27.5727C152.724 27.7924 152.432 28.1877 152.054 28.7587C151.675 29.3242 151.41 29.7634 151.258 30.0819C151.112 30.4003 150.972 30.8121 150.826 31.3227L150.355 32.9369H148.402L149.847 27.8198C149.922 27.5453 149.96 27.3531 149.96 27.2488C149.96 27.2104 149.944 27.1774 149.906 27.1445C149.874 27.1115 149.841 27.0951 149.803 27.0951C149.614 27.0951 149.311 27.3476 148.9 27.8528C148.273 28.6379 147.699 29.5823 147.185 30.6804L146.558 32.9314H144.589L146.039 27.8912C146.185 27.397 146.255 27.0402 146.255 26.8315C146.255 26.7492 146.233 26.6778 146.195 26.6174C146.152 26.557 146.087 26.5076 145.995 26.4746C145.903 26.4362 145.725 26.4197 145.46 26.4197L145.535 26.1232L148.17 25.662H148.635L148.646 25.6675Z" fill="#2C2D8B"/>
<path fill-rule="evenodd" clip-rule="evenodd" d="M161.741 22.0658L160.405 26.7931C160.811 26.3429 161.152 26.0464 161.422 25.8982C161.693 25.7444 161.99 25.673 162.309 25.673C162.926 25.673 163.386 25.8982 163.694 26.3539C164.002 26.8041 164.159 27.3257 164.159 27.9132C164.159 29.3242 163.656 30.5815 162.645 31.6906C161.747 32.6679 160.73 33.1566 159.589 33.1566C158.739 33.1566 157.841 32.904 156.895 32.3989L159.259 24.0808C159.372 23.691 159.426 23.4219 159.426 23.2737C159.426 23.1474 159.372 23.0486 159.269 22.9772C159.123 22.8729 158.907 22.829 158.615 22.8454L158.701 22.5325L161.282 22.0713H161.747L161.741 22.0658ZM158.772 32.4703C159.015 32.6295 159.232 32.7064 159.426 32.7064C159.697 32.7064 159.929 32.6514 160.113 32.5416C160.405 32.3659 160.714 32.042 161.033 31.5753C161.357 31.1086 161.628 30.5486 161.844 29.8897C162.061 29.2309 162.169 28.5775 162.169 27.9241C162.169 27.5508 162.088 27.2708 161.92 27.0786C161.758 26.8864 161.563 26.7876 161.347 26.7876C160.984 26.7876 160.67 26.9633 160.405 27.3202C160.227 27.5508 160.032 28.0394 159.821 28.7861L158.772 32.4703Z" fill="#2C2D8B"/>
<path fill-rule="evenodd" clip-rule="evenodd" d="M169.655 22.0658L167.102 30.889C166.95 31.4106 166.88 31.74 166.88 31.8663C166.88 31.9322 166.902 31.9926 166.94 32.0365C166.988 32.0859 167.037 32.1079 167.086 32.1079C167.178 32.1079 167.264 32.0695 167.351 31.9981C167.6 31.7949 167.875 31.449 168.178 30.9659L168.481 31.1086C167.994 31.9047 167.513 32.4703 167.037 32.8107C166.712 33.0413 166.366 33.1566 166.004 33.1566C165.663 33.1566 165.393 33.0632 165.192 32.882C164.992 32.6954 164.89 32.4703 164.89 32.2067C164.89 32.0146 164.949 31.7016 165.073 31.2733L167.156 24.0479C167.27 23.6525 167.324 23.389 167.324 23.2572C167.324 23.1255 167.27 23.0321 167.161 22.9607C167.015 22.8564 166.799 22.8125 166.507 22.829L166.593 22.5325L169.195 22.0713H169.66L169.655 22.0658Z" fill="#2C2D8B"/>
<path fill-rule="evenodd" clip-rule="evenodd" d="M171.516 29.994C171.467 30.3345 171.446 30.6145 171.446 30.8341C171.446 31.2239 171.554 31.5369 171.775 31.773C172.003 32.0091 172.306 32.1244 172.679 32.1244C173.052 32.1244 173.398 32.0365 173.761 31.8608C174.128 31.6851 174.55 31.3722 175.026 30.9274L175.259 31.1416C174.669 31.8663 174.091 32.3879 173.528 32.6954C172.965 33.0028 172.349 33.1566 171.667 33.1566C170.807 33.1566 170.212 32.9479 169.882 32.5307C169.552 32.1134 169.39 31.6302 169.39 31.0812C169.39 30.2246 169.633 29.3681 170.126 28.5116C170.618 27.6551 171.289 26.9688 172.132 26.4527C172.982 25.9366 173.836 25.6785 174.691 25.6785C175.124 25.6785 175.448 25.7828 175.67 25.9915C175.892 26.2001 176 26.4637 176 26.7821C176 27.161 175.892 27.5343 175.675 27.8967C175.378 28.3908 174.999 28.7861 174.55 29.0881C174.096 29.3846 173.593 29.6152 173.03 29.7689C172.657 29.8733 172.149 29.9501 171.516 30.005V29.994ZM171.586 29.5878C172.041 29.5219 172.387 29.4285 172.636 29.3132C172.89 29.1924 173.133 29.0058 173.371 28.7477C173.615 28.4842 173.82 28.1602 173.999 27.7704C174.172 27.3751 174.264 27.0017 174.264 26.6558C174.264 26.5076 174.22 26.3923 174.139 26.3099C174.064 26.2276 173.961 26.1837 173.836 26.1837C173.588 26.1837 173.312 26.3593 173.003 26.7107C172.435 27.3476 171.965 28.3085 171.592 29.5878H171.586Z" fill="#2C2D8B"/>
</g>
</svg>
