<svg width="182" height="55" viewBox="0 0 182 55" fill="none" xmlns="http://www.w3.org/2000/svg">
<mask id="mask0_45_4744" style="mask-type:alpha" maskUnits="userSpaceOnUse" x="0" y="0" width="182" height="55">
<rect width="182" height="55" rx="6" fill="#D9D9D9"/>
</mask>
<g mask="url(#mask0_45_4744)">
<path d="M35.95 33C35.95 37.0543 33.6086 39.5293 29.9 40.2836C28.8707 40.4879 27.15 40.4879 25.9793 40.4879L16.975 40.4172V43.8586L9 37.3293L16.975 30.8V34.2414L27.0793 34.3122C28.0457 34.3122 28.4543 33.7622 28.4543 33.2122C28.4543 32.1829 27.4957 31.8372 24.6043 30.4622C20 28.2543 16.425 26.675 16.425 21.6543C16.425 17.7336 19.2457 15.0543 23.3707 14.5043C24.1957 14.3707 25.775 14.3707 26.7414 14.3707C28.8 14.3707 34.575 14.5043 34.575 14.5043V20.7586L25.0914 20.625C24.2664 20.625 23.85 21.175 23.85 21.725C23.85 22.55 24.5414 22.8957 27.2207 24.1293C32.8543 26.7379 35.95 28.1836 35.95 33ZM50.8707 32.5129C50.8707 33.6836 49.8414 34.6422 47.9793 34.6422C45.9836 34.6422 45.0957 33.6757 45.0957 32.5129V14.4336H37.325V33.1336C37.325 37.2586 40.7664 41.1793 47.9086 41.1793C54.7207 41.1793 58.5 37.3293 58.5 33.1336V14.4336H50.8707V32.5129ZM82.3543 32.6543C82.3543 37.8086 78.85 40.6293 73.7586 40.6293H60.9043V14.4336H73.2793C78.85 14.4336 81.6629 17.5293 81.6629 21.5836C81.6629 23.6422 80.7043 25.4336 78.7793 26.7379C81.05 27.9793 82.3543 29.9043 82.3543 32.6543ZM68.5414 24.8129H72.1164C73.4914 24.8129 74.1121 23.8543 74.1121 22.4793C74.1121 21.0336 73.4914 20.1457 72.1164 20.1457H68.5414V24.8129ZM74.5836 32.3086C74.5836 30.7293 73.8293 29.8336 72.4543 29.8336H68.5336V34.7836H72.4543C73.9 34.7836 74.5836 33.825 74.5836 32.3086Z" fill="#F2B700"/>
<path d="M108.071 14.4336H115.7V32.8586C115.7 37.125 112.675 40.9671 106.279 40.9671C103.529 40.9671 101.4 40.1421 99.8834 38.9086C98.3748 40.15 96.3084 40.9671 93.7627 40.9671C86.9584 40.9671 84.1377 37.1171 84.1377 32.8586V14.4336H91.767V32.7171C91.767 33.4714 92.1834 34.4379 93.8963 34.4379C95.6091 34.4379 96.0963 33.5421 96.0963 32.7171V14.4336H103.726V32.7171C103.726 33.4714 104.142 34.4379 105.855 34.4379C107.568 34.4379 108.055 33.5421 108.055 32.7171V14.4336H108.071ZM148.558 24.75V14.4336H141V25.4336C141 29.0793 143.475 31.8293 147.671 32.9921V40.5507H155.441V32.9921C159.708 31.8214 162.041 29.0714 162.041 25.4336V21.3793C162.041 20.9707 162.246 20.7586 162.662 20.7586H166.033V24.0586L174 17.5293L166.025 11V14.3H160.729C156.258 14.3 154.404 16.9086 154.404 20.625V24.75C154.404 25.7086 153.713 26.8793 151.45 26.8793C149.25 26.8793 148.558 25.7086 148.558 24.75ZM139.075 21.9293V40.6293H131.446V33H125.671V40.5586H118.041V21.9293C118.041 17.2543 121.891 13.6793 128.562 13.6793C135.154 13.6793 139.075 17.1836 139.075 21.9293ZM131.446 27.0129V22.3379C131.446 21.0964 130.55 20.2086 128.554 20.2086C126.496 20.2086 125.671 21.1043 125.671 22.3379V27.0129H131.446Z" fill="#008938"/>
</g>
</svg>
