<svg width="182" height="55" viewBox="0 0 182 55" fill="none" xmlns="http://www.w3.org/2000/svg">
<mask id="mask0_45_4723" style="mask-type:alpha" maskUnits="userSpaceOnUse" x="0" y="0" width="182" height="55">
<rect width="182" height="55" rx="6" fill="#D9D9D9"/>
</mask>
<g mask="url(#mask0_45_4723)">
<g clip-path="url(#clip0_45_4723)">
<mask id="mask1_45_4723" style="mask-type:luminance" maskUnits="userSpaceOnUse" x="12" y="-132" width="157" height="176">
<path d="M169 -131.82H12.9978V44H169V-131.82Z" fill="white"/>
</mask>
<g mask="url(#mask1_45_4723)">
<path d="M33.0901 22.7597C32.8349 21.9308 32.0894 20.0677 31.8864 18.6921C31.4383 15.6456 33.0017 13.6392 34.4375 13.1797C36.0487 12.7216 36.6782 13.5461 37.3018 15.4624C38.1082 18.3804 38.1981 22.2041 37.9269 27.6782C37.5744 35.1557 33.9023 44.1861 24.7742 43.9985C16.8947 43.8227 13.4082 38.6234 13.0456 30.6908C12.8745 26.9513 13.137 23.2132 14.6569 17.9268C15.4633 15.0959 16.1826 14.0883 18.6844 13.5461C20.651 13.1797 20.474 15.2747 20.0288 17.7451C19.0484 23.2132 18.593 25.8535 18.9556 32.0575C19.3066 38.6234 22.2666 41.178 25.4892 41.178C30.323 41.2725 32.4694 37.1695 33.3686 31.236C34.0778 26.4962 33.5426 24.2165 33.0901 22.7597ZM136.154 29.2355C138.036 29.2355 138.576 31.5034 138.126 32.8775C137.677 34.2427 136.068 35.7999 133.564 36.2535C133.024 34.8824 132.754 29.2355 136.154 29.2355ZM101.164 32.3264C101.164 30.7824 100.353 29.5044 99.3772 29.5044C98.5622 29.5044 96.6898 30.413 96.6898 33.3325C96.6898 35.6197 97.4875 36.7041 97.853 37.1695C100.442 36.3451 101.164 34.151 101.164 32.3264ZM73.3213 13.7278C73.1951 12.2651 72.0697 11.2693 70.5469 11.2693C68.8486 11.2693 67.2489 13.0851 67.4186 15.3663C67.5273 16.8704 68.3975 18.1071 70.1074 18.1071C72.0697 18.1085 73.5011 15.8288 73.3213 13.7278ZM87.8779 19.0837C87.7227 16.5335 87.1165 15.3826 85.772 15.4771C83.9896 15.5865 83.1659 21.2999 83.5299 27.3059C83.7619 31.2241 84.3348 31.8284 84.8685 31.79C85.8547 31.7295 88.2201 24.7291 87.8779 19.0837ZM147.254 28.6829C146.145 33.3709 142.782 40.2678 137.764 40.2678C136.602 40.2678 134.542 39.8083 134.542 38.6234C134.542 37.3454 142.425 37.1695 142.425 31.0557C142.425 28.7789 140.367 25.5831 137.321 25.5831C133.294 25.5831 129.365 30.0555 129.365 36.255C129.365 41.8133 132.754 43.638 136.155 43.638C142.065 43.638 145.646 38.7106 147.524 34.6105C148.423 37.3468 148.951 43.638 151.198 43.638C152.09 43.638 152.72 43.1814 153.795 40.7229C156.474 34.6091 159.073 27.5881 162.655 27.5881C163.994 27.5881 163.192 30.0555 166.413 30.0555C167.931 30.0555 169.001 28.7789 169.001 27.3133C169.001 25.2138 167.125 23.5782 164.263 23.5782C155.847 23.5782 154.063 36.4367 152.719 36.4367C150.48 36.4367 151.196 26.1313 149.582 26.1313C148.149 26.1298 147.446 27.8688 147.254 28.6829ZM75.6504 39.6236C76.992 39.6236 79.2994 39.1804 81.1151 36.218C80.0767 33.8689 79.3356 29.1217 79.2327 27.393C78.699 18.5533 82.0419 10.238 85.701 10.0075C88.384 9.84201 90.5305 12.4291 90.777 16.6207C91.4369 27.6353 87.8358 32.2333 86.0331 36.2003C86.3377 37.7384 88.8989 40.3565 91.3151 40.3565C92.207 40.3565 93.286 39.8999 93.5572 39.5306C93.3774 38.8967 93.1946 38.0767 93.1946 36.8873C93.1946 30.5046 97.2236 25.1221 100.716 25.1221C103.49 25.1221 105.102 28.8602 105.102 31.3276C105.102 34.2412 102.682 36.617 99.1046 38.8967C99.734 39.5306 100.891 39.9915 101.88 39.9915C106.987 39.9915 109.658 33.6975 111.637 27.9501C111.993 26.8538 112.624 25.3068 113.874 25.3068C116.022 25.3068 116.921 39.7152 120.492 39.7152C122.019 39.7152 123.269 36.5209 123.269 34.0654C123.269 32.2392 122.643 32.056 122.643 29.4113C122.643 26.4962 124.166 24.0362 126.229 24.0362C127.481 24.0362 127.934 25.3068 127.934 26.8538C127.934 32.6913 123.81 43.5449 117.732 43.5449C113.159 43.5449 113.516 35.5192 111.906 35.5192C110.108 35.5192 107.602 43.635 98.7493 43.635C97.3106 43.635 95.7921 42.9066 94.542 41.4439C92.397 42.9066 90.6015 43.5449 88.5421 43.5449C85.234 43.5449 83.7982 40.0787 82.4596 40.0787C80.8454 40.0787 79.0601 43.635 73.6838 43.635C69.3881 43.635 68.6716 37.8049 67.1532 37.8049C65.8073 37.8049 63.7493 43.635 61.513 43.635C57.748 43.635 56.9504 33.5157 53.6321 33.5157C51.0375 33.5157 42.8361 43.7931 40.6099 43.5582C39.7151 43.4636 39.338 42.7825 39.4323 41.8694C39.5584 40.6076 40.6244 37.2301 41.0566 35.633C41.7803 32.8597 42.4445 29.8205 42.8158 28.8513C43.1842 27.8732 44.1776 27.1759 44.9753 27.2512C45.377 27.2896 45.4974 28.0535 45.6221 28.6844C46.0746 30.939 46.7055 33.238 47.4176 33.238C48.675 33.238 52.8272 25.1207 55.2434 25.1207C58.202 25.1207 58.5558 37.8906 62.5818 37.8906C63.9277 37.8906 64.9154 36.252 65.8073 34.2397C65.8987 30.8607 66.7935 26.0382 69.478 26.0382C71.359 26.0382 72.2553 30.3199 70.908 34.0639C70.9051 38.5288 73.7665 39.6236 75.6504 39.6236Z" fill="#0F0E9A"/>
</g>
</g>
</g>
<defs>
<clipPath id="clip0_45_4723">
<rect width="156" height="34" fill="white" transform="translate(13 10)"/>
</clipPath>
</defs>
</svg>
