<svg width="182" height="55" viewBox="0 0 182 55" fill="none" xmlns="http://www.w3.org/2000/svg">
<mask id="mask0_45_4696" style="mask-type:alpha" maskUnits="userSpaceOnUse" x="0" y="0" width="182" height="55">
<rect width="182" height="55" rx="6" fill="#D9D9D9"/>
</mask>
<g mask="url(#mask0_45_4696)">
<g clip-path="url(#clip0_45_4696)">
<path d="M45.5161 19.3834L45.3893 23.4935L34.7569 35.1456C39.1982 35.1456 42.0144 35.1018 43.6384 35.0109C43.1677 37.2222 42.785 39.03 42.3994 41.7403C40.2636 41.5584 36.9338 41.513 33.6024 41.513C29.8888 41.513 26.643 41.5579 24.0382 41.7403L24.125 37.5836L34.7569 25.9781C30.1024 25.9781 28.3939 26.0224 26.4734 26.0679C26.899 23.9902 27.1983 21.6879 27.497 19.3834C30.8702 19.5187 32.1937 19.563 36.5922 19.563C40.6492 19.5636 42.9535 19.5187 45.5161 19.3834ZM57.6011 18.1627C50.6818 18.1627 45.3893 24.3954 45.3893 31.8499C45.3893 37.4495 48.591 41.7403 54.8249 41.7403C61.7854 41.7403 67.0374 35.5065 67.0374 28.0081C67.038 22.4557 63.9196 18.1627 57.6011 18.1627ZM55.5081 35.7497C53.9704 35.7497 53.0747 34.3477 53.0747 31.5931C53.0747 27.483 54.7398 24.1868 56.7906 24.1868C58.2838 24.1868 59.1806 25.5428 59.1806 28.3412C59.1801 32.4057 57.5589 35.7497 55.5081 35.7497ZM155.4 17.8535C148.393 17.8535 143.029 24.1686 143.029 31.7169C143.029 37.3927 146.273 41.7403 152.589 41.7403C159.64 41.7403 164.961 35.4246 164.961 27.8291C164.962 22.2017 161.805 17.8535 155.4 17.8535ZM153.148 35.7258C151.61 35.7258 150.715 34.3238 150.715 31.5692C150.715 27.4591 152.381 24.1635 154.431 24.1635C155.924 24.1635 156.822 25.5184 156.822 28.3173C156.821 32.3836 155.198 35.7258 153.148 35.7258ZM102.947 26.2935C103.503 22.4557 103.204 18.9771 98.9774 18.9771C95.9025 18.9771 92.5722 21.597 90.2238 25.9781C90.7368 22.3636 90.4369 18.9771 86.2526 18.9771C83.0931 18.9771 79.6771 21.7317 77.3276 26.2935C77.9257 23.3127 77.7983 19.9244 77.627 19.2021C75.1935 19.609 73.0593 19.8341 70.0695 19.9244C70.1552 22.0028 70.0267 24.7108 69.6422 27.2875L68.6603 34.0612C68.2758 36.7272 67.8485 39.7984 67.4213 41.7408H75.3637C75.4071 40.565 75.7064 38.714 75.9195 37.0881L76.6027 32.437C77.1574 29.409 79.548 25.8429 81.384 25.8429C82.4516 25.8429 82.4099 26.8812 82.1106 28.8231L81.3417 34.0607C80.9561 36.7266 80.5305 39.7978 80.1027 41.7403H88.1303C88.1737 40.5644 88.4296 38.7134 88.6427 37.0875L89.3253 32.4364C89.8811 29.4085 92.2734 25.8423 94.1083 25.8423C95.177 25.8423 95.1347 26.8346 94.9622 28.1906L93.0446 41.7397H100.371L102.947 26.2935ZM141.307 34.6494L140.453 39.9796C139.129 40.702 136.652 41.7414 133.791 41.7414C128.923 41.7414 127.942 39.1215 128.71 33.5662L129.949 24.6233H127.553L128.229 18.8344L130.845 18.7071L131.827 14.5067L139.213 11.7055L138.275 18.7066H143.357C143.186 19.4289 142.587 23.4048 142.419 24.6227H137.463L136.352 32.8882C136.053 35.0109 136.225 35.7792 137.675 35.7792C138.745 35.7781 140.323 35.1456 141.307 34.6494ZM113.289 37.5285C115.977 37.1926 117.827 34.5801 118.272 31.9733L118.347 31.2748C117.192 31.0145 115.522 30.8162 113.904 31.0156C112.362 31.2049 111.079 31.8511 110.389 32.7865C109.869 33.4583 109.607 34.2619 109.723 35.22C109.898 36.655 111.473 37.7519 113.289 37.5285ZM111.001 41.6567C107.207 42.1267 104.708 40.6082 103.958 37.1546C103.487 34.9813 104.14 32.5058 105.283 31.0287C106.813 29.097 109.307 27.857 112.351 27.4824C114.8 27.1761 116.863 27.3273 118.794 27.6956L118.874 27.362C118.929 26.8283 118.985 26.2958 118.907 25.6582C118.707 24.0208 117.427 23.0456 114.264 23.4378C112.131 23.702 110.101 24.4789 108.525 25.3632L106.991 20.6922C109.128 19.4556 111.821 18.5145 114.902 18.1331C120.789 17.4051 124.925 19.2976 125.455 23.6486C125.596 24.8057 125.613 26.0321 125.468 27.1449C124.712 32.5245 124.228 36.5726 124.015 39.2857C123.981 39.7057 123.983 40.4275 124.021 41.4504L116.716 41.4436C116.871 41.0197 117.011 40.4445 117.135 39.7233C117.217 39.2488 117.276 38.6504 117.312 37.9252C115.768 40.0609 113.646 41.3294 111.001 41.6567Z" fill="#E23744"/>
</g>
</g>
<defs>
<clipPath id="clip0_45_4696">
<rect width="141" height="30.4212" fill="white" transform="translate(24 11.7055)"/>
</clipPath>
</defs>
</svg>
