<?xml version="1.0" encoding="UTF-8"?>
<svg width="40" height="40" viewBox="0 0 440 440" xmlns="http://www.w3.org/2000/svg" xmlns:xlink="http://www.w3.org/1999/xlink">
    <path id="Rounded-Rectangle" fill="#ffffff" fill-rule="evenodd" stroke="none" d="M 40 0 C 17.9088 0 0 17.908813 0 40 L 0 400 C 0 422.091187 17.9088 440 40 440 L 400 440 C 422.091187 440 440 422.091187 440 400 L 440 40 C 440 17.908813 422.091187 0 400 0 Z"/>
    <path id="Line" fill="#000000" fill-rule="evenodd" stroke="#000000" stroke-width="17" stroke-linecap="round" stroke-linejoin="round" d="M 117 330.000824 L 248 329.999451"/>
    <path id="path1" fill="#000000" fill-rule="evenodd" stroke="#000000" stroke-width="18" stroke-linecap="round" stroke-linejoin="round" d="M 250.001648 88 L 250 330"/>
    <path id="Dome" fill="#000000" fill-rule="evenodd" stroke="none" d="M 183 403 C 141.026382 403 108 371.973633 108 330 L 109 327 L 124.007813 327 C 124.532997 359.67572 150.743774 386 183 386 C 215.256226 386 241.466995 359.67572 241.992188 327 L 259 327 C 259 368.973633 224.973618 403 183 403 Z"/>
    <path id="B" fill="#000000" fill-rule="evenodd" stroke="none" d="M 183.42572 301.70813 L 151.098145 301.70813 C 146.431808 301.70813 143.100433 300.661804 141.104004 298.569183 C 139.10759 296.476563 138.109375 293.145172 138.109375 288.575043 L 138.109375 209.054962 C 138.109375 204.388626 139.131638 201.033188 141.176163 198.988663 C 143.220688 196.944138 146.528015 195.921875 151.098145 195.921875 L 185.374039 195.921875 C 190.425217 195.921875 194.802917 196.234573 198.507126 196.859955 C 202.211319 197.485336 205.53067 198.688004 208.465164 200.467941 C 210.966705 201.959244 213.179611 203.847427 215.103867 206.132492 C 217.028137 208.417542 218.495377 210.94313 219.505615 213.709259 C 220.515854 216.475388 221.020981 219.397858 221.020981 222.476685 C 221.020981 233.06012 215.729263 240.805267 205.145813 245.712128 C 219.048599 250.137924 226 258.748871 226 271.545349 C 226 277.462433 224.48465 282.790222 221.453934 287.528748 C 218.423218 292.267212 214.334167 295.766968 209.186768 298.027985 C 205.963638 299.374939 202.25943 300.325073 198.074158 300.878296 C 193.888901 301.431519 189.006088 301.70813 183.42572 301.70813 Z M 181.838211 254.732101 L 159.540833 254.732101 L 159.540833 285.616516 L 182.559799 285.616516 C 197.039871 285.616516 204.279907 280.396942 204.279907 269.957825 C 204.279907 264.617981 202.403748 260.745422 198.651443 258.340088 C 194.899124 255.934769 189.294724 254.732101 181.838211 254.732101 Z M 159.540833 212.013504 L 159.540833 239.362076 L 179.168289 239.362076 C 184.508118 239.362076 188.633255 238.856949 191.543701 237.84671 C 194.454147 236.836472 196.679077 234.912216 198.218475 232.073929 C 199.421143 230.053452 200.022476 227.79245 200.022476 225.290909 C 200.022476 219.95108 198.122269 216.403229 194.321854 214.647339 C 190.521439 212.891449 184.724594 212.013504 176.931335 212.013504 Z"/>
    <path id="path2" fill="#000000" fill-rule="evenodd" stroke="none" d="M 241 88 C 241 64.803986 259.803986 46 283 46 C 306.196014 46 325 64.803986 325 88 L 307 88 C 307 74.745148 296.254852 64 283 64 C 269.745148 64 259 74.745148 259 88 L 241 88 Z"/>
    <path id="Dome-copy" fill="#000000" fill-rule="evenodd" stroke="none" d="M 307 87 L 307 87 C 307 91.970581 311.029419 96 316 96 C 320.970581 96 325 91.970581 325 87 Z"/>
    <path id="path3" fill="#000000" fill-rule="evenodd" stroke="none" d="M 248 276 L 504 276"/>
</svg>
