<svg width="40" height="40" viewBox="0 0 40 40" fill="none" xmlns="http://www.w3.org/2000/svg">
<g clip-path="url(#clip0_1900_130160)">
<path d="M37 0H3C1.34315 0 0 1.34315 0 3V37C0 38.6569 1.34315 40 3 40H37C38.6569 40 40 38.6569 40 37V3C40 1.34315 38.6569 0 37 0Z" fill="#E88C1F"/>
<path d="M31.1999 12.2498C31.2199 12.0398 31.0599 11.9398 30.9499 11.7998C29.6399 10.2198 28.0399 9.0098 26.1899 8.1698C25.1299 7.6898 23.9899 7.3698 22.7999 7.2298C21.6599 7.0898 20.5399 7.0198 19.3999 7.1498C17.9499 7.3098 16.5699 7.7298 15.2499 8.3498C13.1399 9.3398 11.4499 10.8398 10.1199 12.7098C9.26992 13.8898 8.65992 15.2198 8.29992 16.6498C7.92992 18.1098 7.71992 19.5798 7.87992 21.0998C7.98992 22.1398 8.13992 23.1498 8.44992 24.1498C8.89992 25.6098 9.62992 26.9398 10.5599 28.1398C11.6199 29.5098 12.8999 30.6498 14.4099 31.4898C16.1599 32.4598 18.0399 33.0398 20.0499 33.1598C20.7899 33.1998 21.5299 33.2098 22.2499 33.1198C23.1099 33.0198 23.9699 32.8298 24.8099 32.5698C25.8499 32.2398 26.8299 31.8098 27.7499 31.2398C29.0699 30.4198 30.2599 29.4398 31.1899 28.1298C28.9999 26.4798 26.8099 24.8498 24.5999 23.1898C23.5899 24.3298 22.3599 24.9098 20.8599 24.8998C19.4999 24.8798 18.3499 24.3298 17.4699 23.3398C15.6899 21.3398 15.9499 18.2298 18.0499 16.5398C19.9199 15.0298 22.9799 15.2398 24.5999 17.2598C26.7999 15.6098 28.9999 13.9598 31.1999 12.2498Z" fill="white" stroke="black" stroke-width="1.8"/>
</g>
<defs>
<clipPath id="clip0_1900_130160">
<rect width="40" height="40" fill="white"/>
</clipPath>
</defs>
</svg>
