<svg width="64" height="64" viewBox="0 0 64 64" fill="none" xmlns="http://www.w3.org/2000/svg">
<path d="M21.831 35.4489C19.7693 36.034 18.4166 37.06 17.5256 38.0851C18.379 37.3382 19.5222 36.6528 21.0643 36.2156C22.6416 35.7686 23.9872 35.7718 25.099 35.9864V35.1169C24.1505 35.0302 23.0632 35.0993 21.831 35.4489ZM17.4313 28.1401L9.77429 30.1574C9.77429 30.1574 9.91384 30.3545 10.1722 30.6176L16.6645 28.9068C16.6645 28.9068 16.5725 30.0923 15.7735 31.1528C17.2848 30.0094 17.4313 28.1401 17.4313 28.1401ZM23.8408 46.1355C13.0653 49.0377 7.36432 36.55 5.63831 30.0684C4.84087 27.0766 4.49276 24.8107 4.39997 23.3484C4.39 23.1966 4.39461 23.0686 4.40535 22.9513C3.84637 22.9851 3.57876 23.2756 3.6332 24.1153C3.72599 25.5768 4.0741 27.8425 4.87154 30.8353C6.59679 37.316 12.2985 49.8036 23.0741 46.9014C25.4195 46.2696 27.1816 45.1187 28.5043 43.6496C27.2851 44.7507 25.7592 45.6179 23.8408 46.1355ZM25.8657 20.4976V21.2644H30.0923C30.0056 20.9929 29.9182 20.7483 29.8315 20.4976H25.8657Z" fill="#2D4552"/>
<path d="M31.037 26.8131C32.9378 27.353 33.943 28.6856 34.4744 29.865L36.5938 30.4669C36.5938 30.4669 36.3046 26.3394 32.5712 25.2789C29.0786 24.2866 26.9293 27.2195 26.6678 27.599C27.6838 26.8752 29.1675 26.2826 31.037 26.8131ZM47.9075 29.884C44.4117 28.8872 42.2632 31.8262 42.0056 32.2005C43.0224 31.4774 44.5053 30.8846 46.3739 31.4176C48.2717 31.9582 49.2762 33.2893 49.8091 34.4694L51.9315 35.0736C51.9315 35.0736 51.6378 30.9453 47.9075 29.884ZM45.8019 40.7669L28.1715 35.8381C28.1715 35.8381 28.3624 36.8058 29.0947 38.0587L43.9387 42.2085C45.1608 41.5014 45.8019 40.7669 45.8019 40.7669ZM33.5787 51.376C19.6189 47.6333 21.3066 29.8466 23.5654 21.4181C24.4955 17.9446 25.4517 15.3629 26.2446 13.6323C25.7715 13.5349 25.3797 13.7842 24.9925 14.5716C24.1506 16.2792 23.0739 19.0595 22.032 22.9517C19.7738 31.38 18.0861 49.1661 32.0453 52.9088C38.625 54.6715 43.7507 51.9925 47.5717 47.7851C43.9448 51.0701 39.3142 52.9118 33.5787 51.376Z" fill="#2D4552"/>
<path d="M25.8657 41.9674V38.3781L15.8931 41.2059C15.8931 41.2059 16.63 36.9243 21.831 35.449C23.4083 35.0019 24.754 35.005 25.8657 35.2197V20.4976H30.859C30.3153 18.8176 29.7894 17.5242 29.3476 16.6255C28.6169 15.1379 27.8678 16.124 26.1671 17.5464C24.9694 18.5471 21.9422 20.6818 17.3868 21.9093C12.8314 23.1376 9.14857 22.8119 7.61196 22.5458C5.43355 22.1699 4.29412 21.6915 4.40072 23.3485C4.49348 24.8099 4.84161 27.0759 5.63905 30.0685C7.36428 36.5493 13.066 49.037 23.8415 46.1347C26.6563 45.3763 28.643 43.8773 30.0201 41.9666H25.8657V41.9674ZM9.7735 30.1575L17.4313 28.1402C17.4313 28.1402 17.2081 31.0861 14.3373 31.8429C11.4658 32.5989 9.7735 30.1575 9.7735 30.1575Z" fill="#E2574C"/>
<path d="M54.6861 20.6681C52.6955 21.0171 47.92 21.4518 42.0182 19.8699C36.1149 18.2889 32.1981 15.5238 30.6462 14.2242C28.4464 12.3816 27.4787 11.1011 26.5264 13.038C25.6845 14.7463 24.6078 17.5267 23.5658 21.4188C21.3077 29.8471 19.62 47.6332 33.579 51.3759C47.5352 55.1155 54.9651 38.8675 57.2234 30.4383C58.2655 26.547 58.7224 23.6003 58.8482 21.7003C58.9915 19.5479 57.5131 20.1727 54.6861 20.6681ZM26.6398 27.6412C26.6398 27.6412 28.8397 24.2198 32.5707 25.2803C36.3042 26.3407 36.5933 30.4683 36.5933 30.4683L26.6398 27.6412ZM35.7475 42.9943C29.1848 41.0719 28.1726 35.8387 28.1726 35.8387L45.8022 40.7676C45.8022 40.7668 42.2437 44.8927 35.7475 42.9943ZM41.9807 32.2395C41.9807 32.2395 44.1774 28.8204 47.9078 29.8839C51.6381 30.946 51.9318 35.0735 51.9318 35.0735L41.9807 32.2395Z" fill="#2EAD33"/>
<path d="M22.3809 39.3666L15.8933 41.2053C15.8933 41.2053 16.598 37.1906 21.3772 35.5995L17.7036 21.813L17.3862 21.9095C12.8308 23.1379 9.14796 22.812 7.61135 22.5459C5.43295 22.1703 4.29353 21.6917 4.4001 23.3488C4.49289 24.8103 4.841 27.076 5.63844 30.0688C7.36369 36.5495 13.0654 49.0371 23.8409 46.1349L24.1583 46.0352L22.3809 39.3666ZM9.77366 30.1578L17.4314 28.1403C17.4314 28.1403 17.2082 31.0863 14.3375 31.8431C11.4659 32.5991 9.77366 30.1578 9.77366 30.1578Z" fill="#D65348"/>
<path d="M36.0435 43.0663L35.7467 42.9942C29.184 41.0719 28.1718 35.8387 28.1718 35.8387L37.2627 38.3798L42.0757 19.8852L42.0174 19.8699C36.1141 18.2889 32.1974 15.5238 30.6454 14.2242C28.4456 12.3816 27.4779 11.1011 26.5256 13.038C25.6845 14.7463 24.6078 17.5267 23.5658 21.4188C21.3077 29.8471 19.62 47.6332 33.579 51.3758L33.8651 51.4402L36.0435 43.0663ZM26.6398 27.6412C26.6398 27.6412 28.8397 24.2198 32.5707 25.2803C36.3042 26.3407 36.5933 30.4683 36.5933 30.4683L26.6398 27.6412Z" fill="#1D8D22"/>
<path d="M22.7115 39.2721L20.9717 39.7659C21.3827 42.083 22.1072 44.3067 23.2443 46.2712C23.4422 46.2275 23.6385 46.1899 23.8401 46.1347C24.3685 45.9921 24.8584 45.8156 25.3301 45.6232C24.0595 43.7377 23.219 41.5662 22.7115 39.2721ZM22.0321 22.9521C21.1381 26.2891 20.3382 31.0921 20.5584 35.9097C20.9525 35.7387 21.3688 35.5793 21.8312 35.4481L22.1533 35.3761C21.7606 30.2302 22.6094 24.9864 23.5656 21.4185C23.808 20.516 24.051 19.6764 24.2933 18.8936C23.903 19.1419 23.4829 19.3964 23.0043 19.6587C22.6816 20.6548 22.3557 21.7436 22.0321 22.9521Z" fill="#C04B41"/>
</svg>
