<?xml version="1.0" encoding="UTF-8"?>
<svg xmlns="http://www.w3.org/2000/svg" xmlns:xlink="http://www.w3.org/1999/xlink" width="27px" height="40px" viewBox="0 0 27 40" version="1.1">
<g id="surface1">
<path style=" stroke:none;fill-rule:nonzero;fill:rgb(87.45098%,87.058824%,87.45098%);fill-opacity:1;" d="M 26.726562 22.375 L 0.230469 22.375 L 0.230469 20.894531 C 0.230469 19.902344 1.046875 19.09375 2.050781 19.09375 L 24.910156 19.09375 C 25.914062 19.09375 26.726562 19.902344 26.726562 20.894531 Z M 26.726562 22.375 "/>
<path style=" stroke:none;fill-rule:nonzero;fill:rgb(100%,100%,100%);fill-opacity:1;" d="M 24.882812 39.535156 L 2.078125 39.535156 C 1.058594 39.535156 0.230469 38.71875 0.230469 37.707031 L 0.230469 22.375 L 26.726562 22.375 L 26.726562 37.707031 C 26.726562 38.71875 25.902344 39.535156 24.882812 39.535156 "/>
<path style=" stroke:none;fill-rule:nonzero;fill:rgb(0%,0%,0%);fill-opacity:1;" d="M 26.398438 22.078125 L 26.398438 20.75 C 26.398438 19.96875 25.757812 19.332031 24.964844 19.332031 L 2.035156 19.332031 C 1.242188 19.332031 0.601562 19.96875 0.601562 20.75 L 0.601562 22.078125 Z M 26.398438 37.898438 L 26.398438 22.671875 L 0.601562 22.671875 L 0.601562 37.898438 C 0.601562 38.679688 1.242188 39.316406 2.035156 39.316406 L 24.964844 39.316406 C 25.757812 39.316406 26.398438 38.679688 26.398438 37.898438 Z M 2.167969 18.738281 L 2.257812 17.773438 L 1.878906 18.746094 C 1.929688 18.742188 1.980469 18.738281 2.035156 18.738281 Z M 24.675781 17.113281 L 24.808594 18.738281 L 24.964844 18.738281 C 25.050781 18.738281 25.136719 18.746094 25.21875 18.753906 Z M 26.492188 19.425781 C 26.808594 19.78125 27 20.242188 27 20.75 L 27 37.898438 C 27 39.007812 26.085938 39.910156 24.964844 39.910156 L 2.035156 39.910156 C 0.914062 39.910156 0 39.007812 0 37.898438 L 0 20.75 C 0 20.214844 0.214844 19.726562 0.5625 19.363281 L 2.589844 14.160156 L 3.476562 4.597656 L 4.472656 4.6875 L 3.675781 13.304688 L 3.957031 13.410156 L 3.574219 14.386719 L 3.171875 18.738281 L 23.800781 18.738281 L 22.65625 4.664062 L 23.65625 4.585938 L 24.332031 12.886719 Z M 2.230469 20.300781 C 2.480469 20.300781 2.683594 20.503906 2.683594 20.75 C 2.683594 21 2.480469 21.199219 2.230469 21.199219 C 1.980469 21.199219 1.777344 21 1.777344 20.75 C 1.777344 20.503906 1.980469 20.300781 2.230469 20.300781 Z M 3.78125 20.300781 C 4.03125 20.300781 4.234375 20.503906 4.234375 20.75 C 4.234375 21 4.03125 21.199219 3.78125 21.199219 C 3.53125 21.199219 3.328125 21 3.328125 20.75 C 3.328125 20.503906 3.53125 20.300781 3.78125 20.300781 Z M 5.285156 20.300781 C 5.535156 20.300781 5.738281 20.503906 5.738281 20.75 C 5.738281 21 5.535156 21.199219 5.285156 21.199219 C 5.035156 21.199219 4.832031 21 4.832031 20.75 C 4.832031 20.503906 5.035156 20.300781 5.285156 20.300781 Z M 5.285156 20.300781 "/>
<path style=" stroke:none;fill-rule:nonzero;fill:rgb(0%,0%,0%);fill-opacity:1;" d="M 3.800781 30.050781 C 3.878906 29.960938 3.917969 29.84375 3.917969 29.699219 C 3.917969 29.554688 3.878906 29.441406 3.800781 29.351562 C 3.71875 29.261719 3.601562 29.21875 3.453125 29.21875 L 2.730469 29.21875 L 2.730469 30.183594 L 3.453125 30.183594 C 3.601562 30.183594 3.71875 30.140625 3.800781 30.050781 Z M 3.453125 28.640625 C 3.765625 28.640625 4.011719 28.738281 4.195312 28.929688 C 4.382812 29.121094 4.472656 29.378906 4.472656 29.699219 C 4.472656 30.023438 4.382812 30.277344 4.203125 30.46875 C 4.015625 30.664062 3.769531 30.761719 3.453125 30.761719 L 2.730469 30.761719 L 2.730469 32.058594 L 2.175781 32.058594 L 2.175781 28.640625 Z M 6.464844 30.738281 L 6.464844 29.742188 L 7.066406 29.742188 L 7.066406 31.992188 L 6.464844 31.992188 L 6.464844 31.789062 C 6.28125 31.96875 6.046875 32.058594 5.75 32.058594 C 5.476562 32.058594 5.257812 31.96875 5.089844 31.792969 C 4.921875 31.617188 4.839844 31.390625 4.839844 31.109375 L 4.839844 29.742188 L 5.441406 29.742188 L 5.441406 30.984375 C 5.441406 31.144531 5.480469 31.273438 5.566406 31.367188 C 5.648438 31.464844 5.757812 31.511719 5.902344 31.511719 C 6.277344 31.511719 6.464844 31.253906 6.464844 30.738281 Z M 9.410156 31.355469 C 9.527344 31.234375 9.585938 31.070312 9.585938 30.867188 C 9.585938 30.664062 9.527344 30.5 9.410156 30.375 C 9.289062 30.253906 9.136719 30.191406 8.949219 30.191406 C 8.78125 30.191406 8.632812 30.253906 8.5 30.382812 C 8.367188 30.507812 8.304688 30.667969 8.304688 30.867188 C 8.304688 31.066406 8.367188 31.230469 8.5 31.351562 C 8.632812 31.476562 8.78125 31.539062 8.949219 31.539062 C 9.136719 31.539062 9.289062 31.476562 9.410156 31.355469 Z M 9.054688 29.671875 C 9.351562 29.671875 9.613281 29.785156 9.839844 30.011719 C 10.0625 30.242188 10.171875 30.523438 10.171875 30.867188 C 10.171875 31.210938 10.0625 31.496094 9.839844 31.71875 C 9.613281 31.945312 9.355469 32.058594 9.054688 32.058594 C 8.757812 32.058594 8.507812 31.976562 8.304688 31.816406 L 8.304688 33.0625 L 7.703125 33.0625 L 7.703125 29.742188 L 8.304688 29.742188 L 8.304688 29.921875 C 8.503906 29.753906 8.753906 29.671875 9.054688 29.671875 Z M 12.332031 31.355469 C 12.453125 31.234375 12.511719 31.070312 12.511719 30.867188 C 12.511719 30.664062 12.453125 30.5 12.332031 30.375 C 12.210938 30.253906 12.058594 30.191406 11.875 30.191406 C 11.703125 30.191406 11.554688 30.253906 11.421875 30.382812 C 11.289062 30.507812 11.226562 30.667969 11.226562 30.867188 C 11.226562 31.066406 11.289062 31.230469 11.421875 31.351562 C 11.554688 31.476562 11.703125 31.539062 11.875 31.539062 C 12.058594 31.539062 12.210938 31.476562 12.332031 31.355469 Z M 11.976562 29.671875 C 12.273438 29.671875 12.539062 29.785156 12.761719 30.011719 C 12.984375 30.242188 13.09375 30.523438 13.09375 30.867188 C 13.09375 31.210938 12.984375 31.496094 12.761719 31.71875 C 12.539062 31.945312 12.277344 32.058594 11.976562 32.058594 C 11.683594 32.058594 11.429688 31.976562 11.226562 31.816406 L 11.226562 33.0625 L 10.625 33.0625 L 10.625 29.742188 L 11.226562 29.742188 L 11.226562 29.921875 C 11.425781 29.753906 11.675781 29.671875 11.976562 29.671875 Z M 13.980469 30.605469 L 15.078125 30.605469 C 15.042969 30.464844 14.972656 30.363281 14.878906 30.296875 C 14.78125 30.226562 14.667969 30.191406 14.539062 30.191406 C 14.417969 30.191406 14.300781 30.226562 14.195312 30.300781 C 14.085938 30.371094 14.011719 30.476562 13.980469 30.605469 Z M 14.539062 29.671875 C 14.851562 29.671875 15.117188 29.78125 15.34375 29.992188 C 15.566406 30.210938 15.679688 30.484375 15.691406 30.824219 L 15.691406 31.027344 L 13.960938 31.027344 C 13.996094 31.183594 14.0625 31.308594 14.167969 31.40625 C 14.273438 31.5 14.390625 31.546875 14.53125 31.546875 C 14.792969 31.546875 14.976562 31.449219 15.097656 31.25 L 15.632812 31.363281 C 15.539062 31.59375 15.390625 31.765625 15.199219 31.882812 C 15.007812 32 14.785156 32.058594 14.53125 32.058594 C 14.203125 32.058594 13.925781 31.945312 13.703125 31.722656 C 13.480469 31.503906 13.367188 31.214844 13.367188 30.867188 C 13.367188 30.519531 13.480469 30.230469 13.707031 30.007812 C 13.929688 29.785156 14.207031 29.671875 14.539062 29.671875 Z M 17.347656 31.503906 C 17.464844 31.503906 17.589844 31.46875 17.726562 31.394531 L 17.902344 31.890625 C 17.691406 32.003906 17.496094 32.058594 17.308594 32.058594 C 17.03125 32.058594 16.8125 31.980469 16.652344 31.832031 C 16.492188 31.683594 16.417969 31.464844 16.417969 31.160156 L 16.417969 30.226562 L 15.929688 30.226562 L 15.929688 29.742188 L 16.417969 29.742188 L 16.417969 29.058594 L 17.015625 29.058594 L 17.015625 29.742188 L 17.757812 29.742188 L 17.757812 30.226562 L 17.015625 30.226562 L 17.015625 31.117188 C 17.015625 31.371094 17.125 31.503906 17.347656 31.503906 Z M 18.609375 30.605469 L 19.707031 30.605469 C 19.671875 30.464844 19.601562 30.363281 19.507812 30.296875 C 19.410156 30.226562 19.296875 30.191406 19.171875 30.191406 C 19.046875 30.191406 18.929688 30.226562 18.824219 30.300781 C 18.714844 30.371094 18.640625 30.476562 18.609375 30.605469 Z M 19.171875 29.671875 C 19.480469 29.671875 19.75 29.78125 19.972656 29.992188 C 20.195312 30.210938 20.308594 30.484375 20.324219 30.824219 L 20.324219 31.027344 L 18.59375 31.027344 C 18.625 31.183594 18.691406 31.308594 18.796875 31.40625 C 18.902344 31.5 19.019531 31.546875 19.160156 31.546875 C 19.421875 31.546875 19.609375 31.449219 19.726562 31.25 L 20.261719 31.363281 C 20.167969 31.59375 20.023438 31.765625 19.832031 31.882812 C 19.640625 32 19.417969 32.058594 19.160156 32.058594 C 18.832031 32.058594 18.554688 31.945312 18.332031 31.722656 C 18.109375 31.503906 17.996094 31.214844 17.996094 30.867188 C 17.996094 30.519531 18.109375 30.230469 18.335938 30.007812 C 18.558594 29.785156 18.839844 29.671875 19.171875 29.671875 Z M 21.308594 30.605469 L 22.40625 30.605469 C 22.371094 30.464844 22.300781 30.363281 22.207031 30.296875 C 22.109375 30.226562 21.996094 30.191406 21.871094 30.191406 C 21.746094 30.191406 21.628906 30.226562 21.523438 30.300781 C 21.414062 30.371094 21.339844 30.476562 21.308594 30.605469 Z M 21.871094 29.671875 C 22.179688 29.671875 22.449219 29.78125 22.671875 29.992188 C 22.894531 30.210938 23.007812 30.484375 23.023438 30.824219 L 23.023438 31.027344 L 21.292969 31.027344 C 21.324219 31.183594 21.390625 31.308594 21.496094 31.40625 C 21.601562 31.5 21.71875 31.546875 21.859375 31.546875 C 22.121094 31.546875 22.308594 31.449219 22.425781 31.25 L 22.960938 31.363281 C 22.867188 31.59375 22.722656 31.765625 22.53125 31.882812 C 22.339844 32 22.117188 32.058594 21.859375 32.058594 C 21.53125 32.058594 21.253906 31.945312 21.03125 31.722656 C 20.808594 31.503906 20.695312 31.214844 20.695312 30.867188 C 20.695312 30.519531 20.808594 30.230469 21.035156 30.007812 C 21.261719 29.785156 21.539062 29.671875 21.871094 29.671875 Z M 24.894531 29.710938 C 24.960938 29.710938 25.015625 29.714844 25.050781 29.726562 L 25.019531 30.300781 L 24.886719 30.300781 C 24.347656 30.300781 24.078125 30.621094 24.078125 31.265625 L 24.078125 31.992188 L 23.476562 31.992188 L 23.476562 29.742188 L 24.078125 29.742188 L 24.078125 30.152344 C 24.28125 29.859375 24.554688 29.710938 24.894531 29.710938 Z M 24.894531 29.710938 "/>
<path style=" stroke:none;fill-rule:nonzero;fill:rgb(0%,84.705882%,63.529412%);fill-opacity:1;" d="M 22.265625 13.851562 L 25.507812 12.300781 L 25.507812 10.753906 L 18.015625 7.210938 L 25.507812 3.390625 L 25.507812 1.894531 L 22.375 0.457031 L 13.507812 4.828125 L 4.488281 0.457031 L 1.582031 2.007812 L 1.582031 3.335938 L 8.625 7.15625 L 1.582031 10.699219 L 1.582031 12.300781 L 4.597656 13.851562 L 13.542969 9.3125 Z M 22.265625 13.851562 "/>
<path style=" stroke:none;fill-rule:nonzero;fill:rgb(0%,0%,0%);fill-opacity:1;" d="M 22.671875 13.21875 L 22.671875 12.554688 L 25.109375 11.300781 L 25.109375 12.050781 Z M 1.777344 11.28125 L 4.136719 12.625 L 4.136719 13.15625 L 1.777344 11.976562 Z M 13.855469 8.464844 L 21.96875 12.433594 L 21.96875 13.230469 L 13.855469 9.117188 Z M 4.835938 12.550781 L 13.15625 8.464844 L 13.15625 9.117188 L 4.835938 13.285156 Z M 10.726562 5.875 L 2.308594 1.851562 L 4.488281 0.753906 L 13.507812 5.382812 L 22.371094 0.753906 L 24.628906 1.898438 L 16.421875 5.992188 C 16.09375 6.15625 16.09375 6.617188 16.421875 6.78125 L 24.546875 10.808594 L 22.441406 11.890625 L 13.507812 7.355469 L 4.414062 11.980469 L 2.335938 10.800781 L 10.730469 6.667969 C 11.0625 6.503906 11.0625 6.035156 10.726562 5.875 Z M 1.882812 3.214844 L 1.882812 2.480469 L 9.734375 6.359375 L 8.941406 6.675781 Z M 17.980469 6.71875 C 17.972656 6.710938 17.230469 6.363281 17.230469 6.363281 L 25.109375 2.4375 L 25.109375 3.171875 Z M 18.769531 7.101562 L 25.699219 3.65625 C 25.769531 3.625 25.8125 3.550781 25.8125 3.472656 L 25.8125 1.84375 C 25.8125 1.765625 25.769531 1.695312 25.699219 1.660156 L 22.46875 0.0234375 C 22.410156 -0.0078125 22.339844 -0.0078125 22.28125 0.0234375 L 13.597656 4.382812 C 13.539062 4.414062 13.472656 4.414062 13.414062 4.386719 L 4.578125 0.0234375 C 4.519531 -0.0078125 4.453125 -0.0078125 4.394531 0.0234375 L 1.191406 1.632812 C 1.121094 1.667969 1.074219 1.738281 1.074219 1.816406 L 1.074219 3.472656 C 1.074219 3.550781 1.121094 3.621094 1.191406 3.65625 L 8.148438 7.0625 L 1.222656 10.464844 C 1.15625 10.5 1.109375 10.570312 1.109375 10.644531 L 1.078125 12.273438 C 1.078125 12.351562 1.121094 12.425781 1.191406 12.460938 L 4.519531 14.128906 C 4.578125 14.15625 4.644531 14.15625 4.707031 14.128906 L 13.414062 9.796875 C 13.472656 9.769531 13.539062 9.769531 13.601562 9.796875 L 22.199219 14.128906 C 22.257812 14.15625 22.324219 14.15625 22.382812 14.128906 L 25.695312 12.542969 C 25.765625 12.507812 25.8125 12.433594 25.8125 12.355469 L 25.8125 10.65625 C 25.8125 10.578125 25.765625 10.503906 25.695312 10.472656 Z M 18.769531 7.101562 "/>
</g>
</svg>
